<svg width="70" height="78" viewBox="0 0 70 78" fill="none" xmlns="http://www.w3.org/2000/svg">
    <g clip-path="url(#clip0)">
        <path d="M69.7126 21.9061L55.7683 3.7113L29.024 0.0596367C25.5601 -0.413512 22.3645 1.97751 21.8856 5.39973L14.2604 59.911C13.7815 63.3332 16.2016 66.4903 19.6655 66.9635L56.4828 71.9905C59.9467 72.4636 63.1423 70.0726 63.6212 66.6504L69.8733 21.9541L69.7126 21.9061Z" fill="#605EC5"/>
        <path d="M69.8201 21.991L53.7102 19.7918L55.9559 3.73657L69.8201 21.991Z" fill="#8987DE"/>
        <path d="M57.2476 29.9889L30.5532 26.3441L30.0225 30.138L56.7169 33.7828L57.2476 29.9889Z" fill="white"/>
        <path d="M55.9146 39.52L29.2202 35.8752L28.6895 39.6692L55.3839 43.3139L55.9146 39.52Z" fill="white"/>
        <path d="M27.8744 45.4979L27.4214 48.7365L50.65 51.908L51.103 48.6695L27.8744 45.4979Z" fill="white"/>
        <path d="M49.6339 26.3764L33.2997 10.2388H6.3008C2.80408 10.2388 -0.0300293 13.0394 -0.0300293 16.4934V71.5224C-0.0300293 74.9771 2.80474 77.777 6.3008 77.777H43.4684C46.9651 77.777 49.7992 74.9764 49.7992 71.5224V26.4016L49.6339 26.3764Z" fill="#252388"/>
        <path d="M49.752 26.4463H33.4893V10.2388L49.752 26.4463Z" fill="#4846AE"/>
        <path d="M38.4054 36.0681H11.4578V39.8981H38.4054V36.0681Z" fill="white"/>
        <path d="M38.4054 45.6899H11.4578V49.5198H38.4054V45.6899Z" fill="white"/>
        <path d="M34.9068 55.4049H11.4578V58.6742H34.9068V55.4049Z" fill="white"/>
    </g>
    <defs>
        <clipPath id="clip0">
            <rect width="70" height="77.7778" fill="white"/>
        </clipPath>
    </defs>
</svg>
