<svg id="Capa_2" data-name="Capa 2" xmlns="http://www.w3.org/2000/svg" viewBox="0 0 42 16" stroke="currentColor" fill="currentColor">
    <path d="M16.14,13.06c-.39,0-.74-.5-1-1.51a19.28,19.28,0,0,1-.42-2c-.43.06-1,.17-1.71.32l-1.69.35c-.22.56-.58,1.38-1.1,2.45a.61.61,0,0,1-.55.36.7.7,0,0,1-.46-.19.61.61,0,0,1-.2-.46A11.73,11.73,0,0,1,10,10a.7.7,0,0,1-.1-.38c0-.35.2-.57.62-.67.49-.91,1.1-2,1.84-3.14,1-1.61,1.64-2.42,1.89-2.42s.56.23.69.7l.4,2.15.95,4.44.36,1a2.39,2.39,0,0,1,.19.69.63.63,0,0,1-.2.46A.64.64,0,0,1,16.14,13.06Zm-2.26-7.3-1.82,3q.76-.21,2.34-.48Z"/><path class="cls-1" d="M23.38,12.61a10.06,10.06,0,0,1-3.67.57.71.71,0,0,1-.52-.26.77.77,0,0,1-.25-.54V10.53q0-.91.12-2.61c.08-1.22.13-2.1.14-2.64s0-1,.07-1.75a.57.57,0,0,1,.21-.43,7,7,0,0,1,2-.26,3.58,3.58,0,0,1,2.16.76A2.65,2.65,0,0,1,24.8,5.78a3.05,3.05,0,0,1-1.27,2.59,4.4,4.4,0,0,1,1.43.9,1.57,1.57,0,0,1,.48,1.09,2,2,0,0,1-.84,1.49A4.11,4.11,0,0,1,23.38,12.61ZM22.17,9.25l-.68-.1H21a4.84,4.84,0,0,1-.74-.05c0,.53,0,1,0,1.43v1.33a8.26,8.26,0,0,0,2.73-.48,2.71,2.71,0,0,0,.86-.53c.26-.22.39-.39.39-.5s-.28-.43-.82-.68A7.17,7.17,0,0,0,22.17,9.25Zm-.72-5.11a7.5,7.5,0,0,0-1,0V5.3l-.13,2.47c.61.05.93.08,1,.07a2.67,2.67,0,0,0,1.58-.6,1.83,1.83,0,0,0,.66-1.46,1.45,1.45,0,0,0-.67-1.12A2.27,2.27,0,0,0,21.45,4.14Z"/>
    <path class="cls-1" d="M33,5.7a.67.67,0,0,1-.62-.48,1.11,1.11,0,0,0-.33-.49,1.76,1.76,0,0,0-.66-.07c-.62,0-1.31.47-2.06,1.41a5.9,5.9,0,0,0-1.53,3.61,2,2,0,0,0,.53,1.42,1.68,1.68,0,0,0,1.31.61A2.85,2.85,0,0,0,31,11.37a8.66,8.66,0,0,0,1.14-.75,1.09,1.09,0,0,1,.54-.27.57.57,0,0,1,.46.21.65.65,0,0,1,.19.46.68.68,0,0,1-.24.51A5.19,5.19,0,0,1,29.66,13a2.92,2.92,0,0,1-2.24-1,3.37,3.37,0,0,1-.88-2.33,7.19,7.19,0,0,1,1.81-4.44,4.12,4.12,0,0,1,3.06-1.89,4.86,4.86,0,0,1,.56,0,1.9,1.9,0,0,1,.44.09A.67.67,0,0,1,33,3.14c.29,0,.48.2.56.58A7.52,7.52,0,0,1,33.65,5a.78.78,0,0,1-.14.46A.56.56,0,0,1,33,5.7Z"/>
    <path d="M39.8,0H2.2a2,2,0,0,0-2,2V14a2,2,0,0,0,2,2H39.8a2,2,0,0,0,2-2V2A2,2,0,0,0,39.8,0Zm-.65,14.26H2.86A.91.91,0,0,1,2,13.35V2.7a1,1,0,0,1,1-1h36a1,1,0,0,1,1.13,1.07V3a.68.68,0,0,1,0,.12h0v10.2A.9.9,0,0,1,39.15,14.26Z"/>
</svg>
