<svg width="180" height="213" viewBox="0 0 180 213" fill="none" xmlns="http://www.w3.org/2000/svg">
<path d="M146.398 33.8555C145.847 32.5477 144.924 31.4301 143.743 30.6409C142.563 29.8518 141.177 29.4259 139.756 29.4158H7.18635C5.28073 29.4168 3.45344 30.1736 2.10596 31.5198C0.758482 32.8661 0.00102394 34.6918 0 36.5957V204.159C0.00102394 206.063 0.758482 207.889 2.10596 209.235C3.45344 210.581 5.28073 211.338 7.18635 211.339H139.761C141.666 211.337 143.493 210.579 144.84 209.234C146.187 207.888 146.945 206.063 146.948 204.159V36.5957C146.951 35.6551 146.766 34.7234 146.403 33.8555H146.398ZM145.347 204.159C145.345 205.64 144.756 207.06 143.708 208.107C142.66 209.154 141.239 209.743 139.756 209.745H7.18635C5.70391 209.745 4.28224 209.156 3.23391 208.109C2.18557 207.062 1.59638 205.641 1.59588 204.16V36.5967C1.5979 35.1159 2.18754 33.6964 3.23552 32.6494C4.2835 31.6023 5.70429 31.0132 7.18635 31.0112H139.761C140.878 31.0154 141.968 31.3519 142.892 31.9777C143.816 32.6035 144.533 33.4902 144.95 34.5248C145.032 34.7309 145.102 34.9413 145.16 35.1549C145.287 35.625 145.352 36.1098 145.352 36.5966L145.347 204.159Z" fill="#3F3D56"/>
<rect x="1" y="31" width="144" height="179" rx="4" fill="white"/>
<path d="M118.733 68.9769H78.8007C77.9534 68.9769 77.1408 68.6406 76.5417 68.042C75.9426 67.4435 75.606 66.6316 75.606 65.7851C75.606 64.9386 75.9426 64.1267 76.5417 63.5281C77.1408 62.9295 77.9534 62.5933 78.8007 62.5933H118.733C119.58 62.5933 120.393 62.9295 120.992 63.5281C121.591 64.1267 121.927 64.9386 121.927 65.7851C121.927 66.6316 121.591 67.4435 120.992 68.042C120.393 68.6406 119.58 68.9769 118.733 68.9769Z" fill="#3F3D56"/>
<path d="M118.732 85.7335H78.8005C78.3806 85.734 77.9647 85.6519 77.5766 85.4918C77.1886 85.3316 76.8359 85.0966 76.5388 84.8001C76.2417 84.5037 76.006 84.1516 75.8452 83.7641C75.6843 83.3766 75.6016 82.9612 75.6016 82.5417C75.6016 82.1221 75.6843 81.7068 75.8452 81.3192C76.006 80.9317 76.2417 80.5796 76.5388 80.2832C76.8359 79.9868 77.1886 79.7517 77.5766 79.5916C77.9647 79.4314 78.3806 79.3493 78.8005 79.3499H118.732C119.152 79.3493 119.568 79.4314 119.956 79.5916C120.344 79.7517 120.697 79.9868 120.994 80.2832C121.291 80.5796 121.527 80.9317 121.688 81.3192C121.849 81.7068 121.931 82.1221 121.931 82.5417C121.931 82.9612 121.849 83.3766 121.688 83.7641C121.527 84.1516 121.291 84.5037 120.994 84.8001C120.697 85.0966 120.344 85.3316 119.956 85.4918C119.568 85.6519 119.152 85.734 118.732 85.7335Z" fill="#3F3D56"/>
<path d="M58.3119 95.2745H29.1298C28.1768 95.2735 27.2633 94.8949 26.5895 94.2217C25.9156 93.5484 25.5367 92.6357 25.5356 91.6836V57.2772C25.5367 56.3251 25.9156 55.4124 26.5895 54.7391C27.2633 54.0659 28.1768 53.6873 29.1298 53.6863H58.3119C59.2648 53.6873 60.1784 54.0659 60.8522 54.7391C61.526 55.4124 61.905 56.3251 61.906 57.2772V91.6836C61.905 92.6357 61.526 93.5484 60.8522 94.2217C60.1784 94.8949 59.2648 95.2735 58.3119 95.2745Z" fill="#605EC5"/>
<path d="M118.455 120.044H28.2093C27.362 120.044 26.5495 119.708 25.9503 119.109C25.3512 118.511 25.0146 117.699 25.0146 116.852C25.0146 116.006 25.3512 115.194 25.9503 114.596C26.5495 113.997 27.362 113.661 28.2093 113.661H118.455C119.303 113.661 120.115 113.997 120.714 114.596C121.314 115.194 121.65 116.006 121.65 116.852C121.65 117.699 121.314 118.511 120.714 119.109C120.115 119.708 119.303 120.044 118.455 120.044Z" fill="#CCCCCC"/>
<path d="M118.455 136.801H28.2093C27.362 136.801 26.5495 136.464 25.9503 135.866C25.3512 135.267 25.0146 134.455 25.0146 133.609C25.0146 132.762 25.3512 131.95 25.9503 131.352C26.5495 130.753 27.362 130.417 28.2093 130.417H118.455C119.303 130.417 120.115 130.753 120.714 131.352C121.314 131.95 121.65 132.762 121.65 133.609C121.65 134.455 121.314 135.267 120.714 135.866C120.115 136.464 119.303 136.801 118.455 136.801Z" fill="#CCCCCC"/>
<path d="M118.456 153.557H28.2094C27.3629 153.556 26.5514 153.219 25.9532 152.621C25.355 152.022 25.019 151.211 25.019 150.365C25.019 149.52 25.355 148.708 25.9532 148.11C26.5514 147.511 27.3629 147.175 28.2094 147.174H118.456C118.875 147.173 119.291 147.255 119.679 147.415C120.067 147.575 120.42 147.81 120.717 148.107C121.014 148.403 121.25 148.755 121.411 149.143C121.572 149.53 121.654 149.946 121.654 150.365C121.654 150.785 121.572 151.2 121.411 151.588C121.25 151.975 121.014 152.327 120.717 152.624C120.42 152.92 120.067 153.155 119.679 153.316C119.291 153.476 118.875 153.558 118.456 153.557Z" fill="#CCCCCC"/>
<path d="M118.455 170.313H28.2093C27.362 170.313 26.5495 169.977 25.9503 169.378C25.3512 168.78 25.0146 167.968 25.0146 167.122C25.0146 166.275 25.3512 165.463 25.9503 164.865C26.5495 164.266 27.362 163.93 28.2093 163.93H118.455C119.303 163.93 120.115 164.266 120.714 164.865C121.314 165.463 121.65 166.275 121.65 167.122C121.65 167.968 121.314 168.78 120.714 169.378C120.115 169.977 119.303 170.313 118.455 170.313Z" fill="#CCCCCC"/>
<path d="M118.455 187.07H28.2093C27.362 187.07 26.5495 186.734 25.9503 186.135C25.3512 185.536 25.0146 184.725 25.0146 183.878C25.0146 183.032 25.3512 182.22 25.9503 181.621C26.5495 181.023 27.362 180.686 28.2093 180.686H118.455C119.303 180.686 120.115 181.023 120.714 181.621C121.314 182.22 121.65 183.032 121.65 183.878C121.65 184.725 121.314 185.536 120.714 186.135C120.115 186.734 119.303 187.07 118.455 187.07Z" fill="#CCCCCC"/>
<path d="M147.389 61.6061C164.416 61.6061 178.219 47.8151 178.219 30.8031C178.219 13.791 164.416 0 147.389 0C130.361 0 116.558 13.791 116.558 30.8031C116.558 47.8151 130.361 61.6061 147.389 61.6061Z" fill="#605EC5"/>
<path d="M144.334 42.5537C143.64 42.5549 142.965 42.3307 142.41 41.9149L142.376 41.8892L135.13 36.3515C134.794 36.0944 134.513 35.7739 134.301 35.4081C134.09 35.0423 133.952 34.6385 133.897 34.2197C133.841 33.8008 133.869 33.3752 133.979 32.9671C134.088 32.559 134.276 32.1764 134.534 31.8411C134.791 31.5058 135.112 31.2244 135.478 31.013C135.844 30.8017 136.248 30.6644 136.667 30.6091C137.087 30.5537 137.513 30.5815 137.921 30.6906C138.33 30.7998 138.713 30.9883 139.048 31.2453L143.741 34.841L154.831 20.3857C155.089 20.0505 155.409 19.7693 155.775 19.558C156.141 19.3467 156.545 19.2095 156.964 19.1542C157.383 19.0989 157.809 19.1266 158.217 19.2357C158.626 19.3448 159.008 19.5332 159.344 19.7901L159.345 19.7909L159.276 19.8863L159.347 19.7909C160.023 20.3105 160.466 21.0771 160.578 21.9225C160.689 22.768 160.461 23.6231 159.942 24.3003L146.898 41.2953C146.596 41.6869 146.208 42.0037 145.764 42.2213C145.32 42.4389 144.831 42.5513 144.337 42.5499L144.334 42.5537Z" fill="white"/>
</svg>
