<svg width="297" height="200" viewBox="0 0 297 200" fill="none" xmlns="http://www.w3.org/2000/svg">
<g clip-path="url(#clip0)">
<rect x="43" y="75" width="101" height="124" rx="4" fill="white"/>
<path d="M293.208 3.75149e-09H92.8571C92.094 0.000665825 91.3623 0.304023 90.8227 0.843474C90.2831 1.38293 89.9796 2.11438 89.979 2.87727V75.2743H138.466C139.778 75.2759 141.037 75.7978 141.965 76.7257C142.893 77.6536 143.415 78.9115 143.417 80.2237V141.475H293.208C293.624 141.475 294.035 141.384 294.413 141.21C294.791 141.036 295.126 140.781 295.396 140.465C295.419 140.44 295.44 140.414 295.459 140.386C295.631 140.176 295.77 139.941 295.871 139.689C296.016 139.344 296.09 138.972 296.089 138.597V2.87727C296.088 2.11386 295.784 1.382 295.244 0.842492C294.704 0.302985 293.971 -3.89309e-05 293.208 3.75149e-09V3.75149e-09Z" fill="#F2F2F2"/>
<path d="M295.676 11.5325H90.3887V12.355H295.676V11.5325Z" fill="#CCCCCC"/>
<path d="M97.3825 8.63711C98.7457 8.63711 99.8508 7.53233 99.8508 6.16951C99.8508 4.80669 98.7457 3.7019 97.3825 3.7019C96.0192 3.7019 94.9141 4.80669 94.9141 6.16951C94.9141 7.53233 96.0192 8.63711 97.3825 8.63711Z" fill="#CCCCCC"/>
<path d="M104.479 8.63711C105.842 8.63711 106.948 7.53233 106.948 6.16951C106.948 4.80669 105.842 3.7019 104.479 3.7019C103.116 3.7019 102.011 4.80669 102.011 6.16951C102.011 7.53233 103.116 8.63711 104.479 8.63711Z" fill="#CCCCCC"/>
<path d="M111.576 8.63711C112.939 8.63711 114.044 7.53233 114.044 6.16951C114.044 4.80669 112.939 3.7019 111.576 3.7019C110.213 3.7019 109.107 4.80669 109.107 6.16951C109.107 7.53233 110.213 8.63711 111.576 8.63711Z" fill="#CCCCCC"/>
<path d="M244.523 29.4922H141.542C140.404 29.4922 139.312 29.9441 138.508 30.7486C137.703 31.553 137.251 32.6441 137.251 33.7817C137.251 34.9194 137.703 36.0104 138.508 36.8148C139.312 37.6193 140.404 38.0712 141.542 38.0712H244.523C245.661 38.0712 246.752 37.6193 247.557 36.8148C248.361 36.0104 248.814 34.9194 248.814 33.7817C248.814 32.6441 248.361 31.553 247.557 30.7486C246.752 29.9441 245.661 29.4922 244.523 29.4922V29.4922ZM244.523 37.4113H141.542C140.579 37.4113 139.655 37.0289 138.975 36.3482C138.294 35.6675 137.911 34.7443 137.911 33.7817C137.911 32.8191 138.294 31.8959 138.975 31.2152C139.655 30.5345 140.579 30.1521 141.542 30.1521H244.523C245.486 30.1521 246.409 30.5345 247.09 31.2152C247.771 31.8959 248.153 32.8191 248.153 33.7817C248.153 34.7443 247.771 35.6675 247.09 36.3482C246.409 37.0289 245.486 37.4113 244.523 37.4113Z" fill="#CCCCCC"/>
<path d="M276.034 63.6663H173.054C171.916 63.6663 170.824 64.1182 170.019 64.9226C169.215 65.7271 168.763 66.8181 168.763 67.9558C168.763 69.0934 169.215 70.1845 170.019 70.9889C170.824 71.7933 171.916 72.2453 173.054 72.2453H276.034C277.172 72.2453 278.264 71.7933 279.068 70.9889C279.873 70.1845 280.325 69.0934 280.325 67.9558C280.325 66.8181 279.873 65.7271 279.068 64.9226C278.264 64.1182 277.172 63.6663 276.034 63.6663V63.6663Z" fill="white"/>
<path d="M276.034 79.5044H173.054C171.916 79.5044 170.824 79.9563 170.019 80.7608C169.215 81.5652 168.763 82.6563 168.763 83.7939C168.763 84.9316 169.215 86.0226 170.019 86.8271C170.824 87.6315 171.916 88.0834 173.054 88.0834H276.034C277.172 88.0834 278.264 87.6315 279.068 86.8271C279.873 86.0226 280.325 84.9316 280.325 83.7939C280.325 82.6563 279.873 81.5652 279.068 80.7608C278.264 79.9563 277.172 79.5044 276.034 79.5044V79.5044Z" fill="white"/>
<path d="M276.034 95.3425H173.054C171.916 95.3425 170.824 95.7945 170.019 96.5989C169.215 97.4033 168.763 98.4944 168.763 99.632C168.763 100.77 169.215 101.861 170.019 102.665C170.824 103.47 171.916 103.922 173.054 103.922H276.034C277.172 103.922 278.264 103.47 279.068 102.665C279.873 101.861 280.325 100.77 280.325 99.632C280.325 98.4944 279.873 97.4033 279.068 96.5989C278.264 95.7945 277.172 95.3425 276.034 95.3425V95.3425Z" fill="white"/>
<path d="M156.412 56.572H109.536C108.53 56.5732 107.566 56.973 106.855 57.6838C106.144 58.3945 105.744 59.3581 105.743 60.3633V75.2743H106.403V60.3633C106.405 59.5332 106.735 58.7374 107.322 58.1505C107.909 57.5635 108.705 57.2332 109.536 57.2319H156.412C157.242 57.2327 158.039 57.5628 158.626 58.1499C159.213 58.737 159.543 59.533 159.544 60.3633V107.225C159.543 108.055 159.213 108.851 158.626 109.438C158.039 110.025 157.242 110.355 156.412 110.356H143.417V111.016H156.412C157.417 111.015 158.382 110.615 159.093 109.905C159.804 109.194 160.204 108.23 160.204 107.225V60.3633C160.204 59.358 159.804 58.394 159.093 57.6832C158.382 56.9723 157.417 56.5727 156.412 56.572V56.572Z" fill="#CCCCCC"/>
<path d="M34.8624 104.785C34.6966 104.792 27.6306 104.302 27.4502 104.296L28.0849 97.9618L32.1096 97.8406L39.8001 83.601C38.7335 81.5678 40.046 78.8699 42.3087 78.4541C46.8682 77.4181 48.4345 84.5892 43.8611 85.5434L37.5 102.943C37.3004 103.483 36.9409 103.948 36.4695 104.277C35.9981 104.606 35.4374 104.783 34.8624 104.785V104.785Z" fill="#FFB8B8"/>
<path d="M16.2344 108.048C9.51039 108.064 8.92013 97.9055 15.659 97.1896C33.4788 96.1132 31.2238 91.639 32.577 104.837C32.6186 105.228 32.5031 105.62 32.2559 105.926C32.0087 106.233 31.65 106.429 31.2586 106.471L16.818 108.016C16.6242 108.037 16.4294 108.048 16.2344 108.048V108.048Z" fill="#6C63FF"/>
<path d="M14.6994 75.9292C23.9626 81.1986 16.358 95.102 6.92214 90.1511C-2.34073 84.8819 5.26387 70.9785 14.6994 75.9292Z" fill="#FFB8B8"/>
<path d="M23.1208 195.609L27.1671 195.609L29.0923 180.005L23.1201 180.006L23.1208 195.609Z" fill="#FFB8B8"/>
<path d="M22.2536 199.366L34.9714 199.365C34.9228 192.805 26.4166 194.695 22.2534 194.454L22.2536 199.366Z" fill="#2F2E41"/>
<path d="M5.62761 195.609L9.6739 195.609L11.5992 180.005L5.62695 180.006L5.62761 195.609Z" fill="#FFB8B8"/>
<path d="M4.76048 199.366L17.4782 199.365C17.4296 192.805 8.92346 194.695 4.76025 194.454L4.76048 199.366Z" fill="#2F2E41"/>
<path d="M10.2259 190.16C9.24793 189.891 3.93358 190.703 3.30639 189.638C1.11607 167.692 1.60295 146.214 6.46504 134.412L23.1823 133.389C26.9206 140.211 35.5137 185.482 30.3302 188.234L23.6647 188.472C23.2846 188.484 22.9118 188.365 22.6089 188.135C22.306 187.906 22.0915 187.578 22.0014 187.209L16.425 155.494C15.0363 153.554 12.3066 188.894 11.8559 188.762C11.7971 189.152 11.6001 189.507 11.3009 189.764C11.0017 190.021 10.6201 190.161 10.2259 190.16V190.16Z" fill="#2F2E41"/>
<path d="M5.93452 137.186C-2.50582 128.358 2.87797 104.692 2.60549 105.195C2.62861 104.615 4.54034 95.687 9.48555 94.2217C13.409 92.9272 17.7515 96.7992 18.2871 100.715L24.1644 135.412C24.1948 135.601 24.1804 135.794 24.1223 135.977C24.0642 136.159 23.964 136.325 23.8298 136.461C24.1188 137.361 6.34771 137.006 5.93452 137.186Z" fill="#6C63FF"/>
<path d="M8.6735 82.1386C9.41473 81.6701 9.78006 80.8667 10.2115 80.1349C12.4842 78.84 15.0967 81.9724 17.5005 80.8034C24.2975 74.2803 17.311 72.3559 11.0508 72.0119C9.57202 71.8297 8.31402 72.3541 7.19596 73.2202C-5.30885 72.2655 0.688283 88.8878 8.58033 91.0832C9.97374 91.6933 11.019 90.4584 9.7902 89.3359C8.09006 87.5541 5.98399 83.9674 8.6735 82.1386Z" fill="#2F2E41"/>
<path d="M138.466 74.6145H48.0276C46.5401 74.6166 45.1141 75.2083 44.0623 76.2598C43.0105 77.3113 42.4186 78.7368 42.4165 80.2239V194.391C42.4186 195.878 43.0105 197.303 44.0623 198.355C45.1141 199.406 46.5401 199.998 48.0276 200H138.466C139.953 199.998 141.379 199.406 142.431 198.355C143.483 197.303 144.075 195.878 144.077 194.391V80.2239C144.075 78.7368 143.483 77.3113 142.431 76.2598C141.379 75.2083 139.953 74.6166 138.466 74.6145V74.6145ZM143.417 194.391C143.415 195.703 142.893 196.961 141.965 197.889C141.037 198.817 139.779 199.339 138.466 199.34H48.0276C46.715 199.339 45.4567 198.817 44.5285 197.889C43.6004 196.961 43.0782 195.703 43.0766 194.391V80.2239C43.0782 78.9117 43.6004 77.6537 44.5285 76.7258C45.4567 75.798 46.715 75.276 48.0276 75.2744H138.466C139.779 75.276 141.037 75.798 141.965 76.7258C142.893 77.6537 143.415 78.9117 143.417 80.2239V194.391Z" fill="#3F3D56"/>
<path d="M22.5456 122.656C19.5649 122.994 18.2563 116.06 17.1167 114.293L23.0529 111.989L24.9845 115.52L41.167 115.922C41.2632 115.792 41.3682 115.669 41.4814 115.553V115.553C44.6906 112.193 49.917 117.227 46.7199 120.579C46.3671 120.953 45.939 121.249 45.4636 121.446C44.9883 121.644 44.4765 121.738 43.962 121.723C43.4475 121.708 42.9421 121.584 42.4789 121.36C42.0157 121.136 41.6054 120.816 41.2749 120.421C40.8753 120.45 22.9365 122.667 22.5456 122.656Z" fill="#FFB8B8"/>
<path d="M18.1498 119.346C17.1573 120.302 9.53812 106.882 8.98148 106.503C5.13147 100.521 14.1951 94.6145 18.1115 100.564L26.0321 112.733C26.2465 113.063 26.3211 113.465 26.2396 113.85C26.1581 114.235 25.9271 114.572 25.5973 114.787C25.2363 114.956 18.4046 119.709 18.1498 119.346Z" fill="#6C63FF"/>
<path d="M120.997 137.579H66.2064C60.6095 137.552 60.5862 129.029 66.2067 129H120.997C126.59 129.026 126.621 137.55 120.997 137.579Z" fill="#CCCCCC"/>
<path d="M141.107 85.1732C139.409 85.1732 137.75 84.67 136.339 83.7274C134.928 82.7847 133.828 81.4448 133.178 79.8772C132.529 78.3096 132.359 76.5846 132.69 74.9205C133.021 73.2563 133.838 71.7277 135.038 70.5279C136.239 69.3281 137.768 68.511 139.432 68.18C141.097 67.849 142.823 68.0189 144.391 68.6682C145.959 69.3175 147.299 70.4171 148.242 71.8279C149.185 73.2387 149.688 74.8974 149.688 76.5942C149.686 78.8687 148.781 81.0493 147.172 82.6576C145.563 84.2659 143.382 85.1706 141.107 85.1732V85.1732Z" fill="#6C63FF"/>
<path d="M83.6283 119H64.3717C63.7429 118.999 63.14 118.744 62.6954 118.291C62.2508 117.838 62.0007 117.223 62 116.582V93.4176C62.0007 92.7766 62.2508 92.1621 62.6954 91.7089C63.14 91.2556 63.7429 91.0007 64.3717 91H83.6283C84.2571 91.0007 84.86 91.2556 85.3046 91.7089C85.7492 92.1621 85.9993 92.7766 86 93.4176V116.582C85.9993 117.223 85.7492 117.838 85.3046 118.291C84.86 118.744 84.2571 118.999 83.6283 119V119Z" fill="#605EC5"/>
<path d="M145.067 76.2643H141.436V72.1398C141.436 72.0523 141.402 71.9683 141.34 71.9065C141.278 71.8446 141.194 71.8098 141.106 71.8098C141.019 71.8098 140.935 71.8446 140.873 71.9065C140.811 71.9683 140.776 72.0523 140.776 72.1398V76.2643H137.145C137.058 76.2643 136.974 76.2991 136.912 76.3609C136.85 76.4228 136.815 76.5068 136.815 76.5943C136.815 76.6818 136.85 76.7657 136.912 76.8276C136.974 76.8895 137.058 76.9242 137.145 76.9242H140.776V81.0488C140.776 81.1363 140.811 81.2202 140.873 81.2821C140.935 81.3439 141.019 81.3787 141.106 81.3787C141.194 81.3787 141.278 81.3439 141.34 81.2821C141.402 81.2202 141.436 81.1363 141.436 81.0488V76.9242H145.067C145.155 76.9242 145.239 76.8895 145.301 76.8276C145.362 76.7657 145.397 76.6818 145.397 76.5943C145.397 76.5068 145.362 76.4228 145.301 76.3609C145.239 76.2991 145.155 76.2643 145.067 76.2643Z" fill="white"/>
</g>
<defs>
<clipPath id="clip0">
<rect width="296.089" height="200" fill="white"/>
</clipPath>
</defs>
</svg>
