<svg width="286" height="262" viewBox="0 0 286 262" fill="none" xmlns="http://www.w3.org/2000/svg">
<g clip-path="url(#clip0)">
<path d="M183.496 153H69.5039C69.1051 153 68.7229 152.839 68.441 152.554C68.159 152.268 68.0005 151.881 68 151.478V24.5222C68.0005 24.1187 68.159 23.7317 68.441 23.4464C68.7229 23.161 69.1051 23.0005 69.5039 23H183.496C183.895 23.0005 184.277 23.161 184.559 23.4464C184.841 23.7317 185 24.1187 185 24.5222V151.478C185 151.881 184.841 152.268 184.559 152.554C184.277 152.839 183.895 153 183.496 153V153Z" fill="white"/>
<path d="M183.496 153H69.5039C69.1051 153 68.7229 152.839 68.441 152.554C68.159 152.268 68.0005 151.881 68 151.478V24.5222C68.0005 24.1187 68.159 23.7317 68.441 23.4464C68.7229 23.161 69.1051 23.0005 69.5039 23H183.496C183.895 23.0005 184.277 23.161 184.559 23.4464C184.841 23.7317 185 24.1187 185 24.5222V151.478C185 151.881 184.841 152.268 184.559 152.554C184.277 152.839 183.895 153 183.496 153V153ZM69.5038 23.6089C69.2646 23.6092 69.0352 23.7055 68.8661 23.8767C68.6969 24.048 68.6018 24.2801 68.6015 24.5223V151.478C68.6018 151.72 68.6969 151.952 68.8661 152.123C69.0352 152.295 69.2646 152.391 69.5038 152.391H183.496C183.735 152.391 183.965 152.295 184.134 152.123C184.303 151.952 184.398 151.72 184.398 151.478V24.5223C184.398 24.2801 184.303 24.048 184.134 23.8767C183.965 23.7055 183.735 23.6092 183.496 23.6089H69.5038Z" fill="#3F3D56"/>
<path d="M118.51 71H90.4904C90.0953 70.9995 89.7164 70.8424 89.437 70.563C89.1576 70.2836 89.0005 69.9048 89 69.5096V41.4904C89.0005 41.0952 89.1576 40.7164 89.437 40.437C89.7164 40.1576 90.0953 40.0005 90.4904 40H118.51C118.905 40.0005 119.284 40.1576 119.563 40.437C119.842 40.7164 120 41.0952 120 41.4904V69.5096C120 69.9048 119.842 70.2836 119.563 70.563C119.284 70.8424 118.905 70.9995 118.51 71ZM90.4904 40.5962C90.2533 40.5964 90.026 40.6907 89.8584 40.8584C89.6907 41.026 89.5964 41.2533 89.5962 41.4904V69.5096C89.5964 69.7467 89.6907 69.974 89.8584 70.1416C90.026 70.3093 90.2533 70.4036 90.4904 70.4038H118.51C118.747 70.4036 118.974 70.3093 119.142 70.1416C119.309 69.974 119.404 69.7467 119.404 69.5096V41.4904C119.404 41.2533 119.309 41.026 119.142 40.8584C118.974 40.6907 118.747 40.5964 118.51 40.5962H90.4904Z" fill="#F2F2F2"/>
<path d="M110.646 75H82.3544C81.9953 74.9996 81.651 74.8568 81.3971 74.6029C81.1432 74.349 81.0004 74.0047 81 73.6456V45.3544C81.0004 44.9953 81.1432 44.651 81.3971 44.3971C81.651 44.1432 81.9953 44.0004 82.3544 44H110.646C111.005 44.0004 111.349 44.1432 111.603 44.3971C111.857 44.651 112 44.9953 112 45.3544V73.6456C112 74.0047 111.857 74.349 111.603 74.6029C111.349 74.8568 111.005 74.9996 110.646 75Z" fill="#605EC5"/>
<path d="M170.649 89H82.3543C82.1766 89.0004 82.0005 88.9619 81.8362 88.8867C81.6719 88.8115 81.5226 88.7011 81.3968 88.5618C81.271 88.4224 81.1712 88.2569 81.1031 88.0748C81.035 87.8926 81 87.6972 81 87.5C81 87.3027 81.035 87.1074 81.1031 86.9252C81.1712 86.7431 81.271 86.5776 81.3968 86.4382C81.5226 86.2989 81.6719 86.1885 81.8362 86.1133C82.0005 86.0381 82.1766 85.9996 82.3543 86H170.649C171.007 86 171.351 86.158 171.604 86.4393C171.858 86.7206 172 87.1022 172 87.5C172 87.8978 171.858 88.2794 171.604 88.5607C171.351 88.842 171.007 89 170.649 89V89Z" fill="#CCCCCC"/>
<path d="M149.642 98H82.3605C82.182 98.0003 82.0051 97.9746 81.8401 97.9245C81.675 97.8743 81.525 97.8007 81.3987 97.7078C81.2723 97.6149 81.172 97.5046 81.1036 97.3832C81.0352 97.2617 81 97.1315 81 97C81 96.8685 81.0352 96.7383 81.1036 96.6168C81.172 96.4954 81.2723 96.385 81.3987 96.2922C81.525 96.1993 81.675 96.1257 81.8401 96.0755C82.0051 96.0254 82.182 95.9997 82.3605 96H149.642C150.002 96 150.348 96.1054 150.602 96.2929C150.857 96.4804 151 96.7348 151 97C151 97.2652 150.857 97.5196 150.602 97.7071C150.348 97.8946 150.002 98 149.642 98V98Z" fill="#CCCCCC"/>
<path d="M170.638 54H131.36C130.999 54 130.653 53.8946 130.398 53.7071C130.143 53.5196 130 53.2652 130 53C130 52.7348 130.143 52.4804 130.398 52.2929C130.653 52.1054 130.999 52 131.36 52H170.638C170.816 51.9997 170.993 52.0254 171.159 52.0755C171.324 52.1257 171.474 52.1993 171.601 52.2921C171.727 52.385 171.828 52.4954 171.896 52.6168C171.965 52.7383 172 52.8685 172 53C172 53.1315 171.965 53.2617 171.896 53.3832C171.828 53.5046 171.727 53.615 171.601 53.7078C171.474 53.8007 171.324 53.8743 171.159 53.9245C170.993 53.9746 170.816 54.0003 170.638 54V54Z" fill="#605EC5"/>
<path d="M160.649 64H131.351C130.993 64 130.649 63.842 130.396 63.5607C130.142 63.2794 130 62.8978 130 62.5C130 62.1022 130.142 61.7207 130.396 61.4394C130.649 61.1581 130.993 61 131.351 61H160.649C161.007 61 161.351 61.1581 161.604 61.4394C161.858 61.7207 162 62.1022 162 62.5C162 62.8978 161.858 63.2794 161.604 63.5607C161.351 63.842 161.007 64 160.649 64V64Z" fill="#605EC5"/>
<path d="M170.646 108H82.3514C81.993 108 81.6493 107.842 81.3958 107.561C81.1424 107.279 81 106.898 81 106.5C81 106.102 81.1424 105.721 81.3958 105.439C81.6493 105.158 81.993 105 82.3514 105H170.646C170.823 105 170.999 105.038 171.164 105.113C171.328 105.188 171.477 105.299 171.603 105.438C171.729 105.578 171.829 105.743 171.897 105.925C171.965 106.107 172 106.303 172 106.5C172 106.697 171.965 106.893 171.897 107.075C171.829 107.257 171.729 107.422 171.603 107.562C171.477 107.701 171.328 107.812 171.164 107.887C170.999 107.962 170.823 108 170.646 108V108Z" fill="#CCCCCC"/>
<path d="M149.639 117H82.3577C81.9976 117 81.6523 116.842 81.3976 116.561C81.143 116.279 81 115.898 81 115.5C81 115.102 81.143 114.721 81.3976 114.439C81.6523 114.158 81.9976 114 82.3577 114H149.639C149.818 114 149.995 114.038 150.16 114.113C150.325 114.188 150.475 114.299 150.601 114.438C150.728 114.578 150.828 114.743 150.896 114.925C150.965 115.107 151 115.303 151 115.5C151 115.697 150.965 115.893 150.896 116.075C150.828 116.257 150.728 116.422 150.601 116.562C150.475 116.701 150.325 116.812 150.16 116.887C149.995 116.962 149.818 117 149.639 117L149.639 117Z" fill="#CCCCCC"/>
<path d="M170.649 126H82.3543C82.1766 126 82.0005 125.975 81.8362 125.924C81.6719 125.874 81.5226 125.801 81.3968 125.708C81.271 125.615 81.1712 125.505 81.1031 125.383C81.035 125.262 81 125.131 81 125C81 124.869 81.035 124.738 81.1031 124.617C81.1712 124.495 81.271 124.385 81.3968 124.292C81.5226 124.199 81.6719 124.126 81.8362 124.076C82.0005 124.025 82.1766 124 82.3543 124H170.649C171.007 124 171.351 124.105 171.604 124.293C171.858 124.48 172 124.735 172 125C172 125.265 171.858 125.52 171.604 125.707C171.351 125.895 171.007 126 170.649 126V126Z" fill="#CCCCCC"/>
<path d="M170.648 136H82.3515C81.993 136 81.6493 135.842 81.3959 135.561C81.1424 135.279 81 134.898 81 134.5C81 134.102 81.1424 133.721 81.3959 133.439C81.6493 133.158 81.993 133 82.3515 133H170.648C171.007 133 171.351 133.158 171.604 133.439C171.858 133.721 172 134.102 172 134.5C172 134.898 171.858 135.279 171.604 135.561C171.351 135.842 171.007 136 170.648 136V136Z" fill="#CCCCCC"/>
<path d="M97.5595 205.504C97.5614 215.316 94.6241 224.9 89.1303 233.009C83.6366 241.119 75.841 247.377 66.759 250.968C66.0466 251.255 65.3211 251.523 64.5923 251.77C63.7781 252.051 62.9552 252.308 62.1235 252.542C61.5457 252.704 60.9625 252.856 60.3737 252.998C51.5111 255.133 42.2313 254.735 33.5817 251.849C32.9021 251.622 32.2291 251.377 31.5627 251.123C30.6664 250.777 29.7801 250.404 28.9101 250.004C28.8444 249.978 28.782 249.948 28.7197 249.919C28.3782 249.76 28.0467 249.602 27.7085 249.433H27.7052C27.2423 249.209 26.7838 248.976 26.3297 248.734C25.2857 248.179 24.2647 247.588 23.2667 246.961C22.748 246.638 22.237 246.302 21.7336 245.955C13.8107 240.577 7.64269 232.968 4.00227 224.082C0.361843 215.195 -0.58904 205.426 1.26876 195.999C3.12656 186.571 7.71041 177.905 14.446 171.085C21.1816 164.265 29.7693 159.595 39.1331 157.661C39.99 157.482 40.8556 157.328 41.7299 157.199C42.2782 157.113 42.833 157.04 43.3878 156.977C43.7851 156.931 44.1823 156.888 44.5861 156.855H44.5894C45.6695 156.756 46.7594 156.695 47.8592 156.67C48.0102 156.667 48.1612 156.664 48.3155 156.661C48.4009 156.661 48.4862 156.657 48.5716 156.661H48.5749C48.7062 156.657 48.8375 156.657 48.9721 156.657C49.5236 156.657 50.0752 156.667 50.6234 156.687C51.8315 156.727 53.0265 156.81 54.2084 156.938C54.8912 157.01 55.5642 157.099 56.2372 157.199C56.3127 157.212 56.3915 157.222 56.4671 157.235C56.6903 157.271 56.9168 157.307 57.14 157.347C57.6128 157.423 58.0823 157.512 58.5517 157.608C58.9916 157.697 59.4283 157.789 59.8649 157.888C61.4786 158.258 63.072 158.713 64.6383 159.251C75.2537 162.9 84.2915 170.12 90.2255 179.691C90.3929 179.959 90.557 180.229 90.7179 180.503C90.8427 180.708 90.9608 180.912 91.079 181.12C91.1217 181.19 91.1611 181.259 91.1972 181.328C91.2235 181.368 91.2432 181.407 91.2662 181.447C91.4828 181.827 91.6929 182.213 91.8965 182.599C95.6264 189.651 97.5714 197.517 97.5595 205.504V205.504Z" fill="white"/>
<path d="M48.9773 254.683C43.7101 254.683 38.4772 253.832 33.4784 252.163C32.8339 251.947 32.1694 251.708 31.4464 251.432C30.5343 251.08 29.6355 250.701 28.7738 250.305C28.7164 250.282 28.6483 250.25 28.5802 250.218C28.2534 250.066 27.9339 249.914 27.609 249.752L27.5628 249.731C27.1018 249.508 26.6353 249.27 26.1761 249.026C25.1304 248.47 24.093 247.87 23.0928 247.242C22.5723 246.917 22.0522 246.575 21.5477 246.227C13.5718 240.813 7.36264 233.152 3.69808 224.206C0.0335247 215.259 -0.923414 205.424 0.947157 195.934C2.81773 186.443 7.43262 177.718 14.2136 170.852C20.9947 163.987 29.6402 159.285 39.0672 157.338C39.9267 157.159 40.8066 157.002 41.6821 156.872C42.2007 156.791 42.7631 156.716 43.3512 156.65C43.7511 156.603 44.152 156.56 44.5596 156.527C45.6414 156.428 46.7491 156.365 47.8521 156.341L48.3968 156.33C48.4592 156.329 48.5216 156.329 48.584 156.331C48.7009 156.328 48.8348 156.328 48.9722 156.328C49.5276 156.328 50.0872 156.338 50.6353 156.357C51.8462 156.397 53.0605 156.482 54.2435 156.61C54.87 156.677 55.5378 156.762 56.2848 156.872L56.6005 156.923C56.799 156.955 56.9994 156.987 57.1972 157.022C57.6229 157.091 58.0758 157.174 58.617 157.285C59.059 157.374 59.4981 157.467 59.9373 157.567C61.5624 157.94 63.1669 158.398 64.7445 158.939C75.426 162.623 84.5216 169.889 90.5042 179.517C90.6724 179.786 90.8379 180.059 91.0007 180.336C91.1244 180.538 91.2443 180.746 91.3641 180.957C91.4026 181.019 91.443 181.09 91.4807 181.161C91.499 181.19 91.5153 181.219 91.5313 181.248L91.5499 181.281C91.7562 181.643 91.9642 182.023 92.1867 182.445C95.4163 188.564 97.3238 195.301 97.7843 202.213C98.2447 209.125 97.2477 216.057 94.8586 222.555C92.4695 229.053 88.742 234.971 83.9204 239.92C79.0988 244.869 73.2917 248.739 66.8793 251.276C66.1841 251.556 65.4493 251.828 64.6975 252.083C63.8833 252.364 63.0467 252.625 62.2122 252.861C61.6344 253.022 61.0418 253.177 60.4504 253.319C56.6925 254.225 52.8417 254.683 48.9773 254.683V254.683ZM27.7805 249.104H27.7822L27.8544 249.138C28.1897 249.305 28.5187 249.462 28.8573 249.619C28.917 249.648 28.9731 249.674 29.0322 249.698C29.8961 250.094 30.7824 250.468 31.6806 250.815C32.3938 251.087 33.0502 251.324 33.6857 251.537C42.2767 254.405 51.4946 254.8 60.2973 252.677C60.8809 252.537 61.4658 252.384 62.0355 252.225C62.8575 251.993 63.6822 251.735 64.4859 251.458C65.2277 251.206 65.9509 250.939 66.6369 250.662C75.6798 247.127 83.4444 240.919 88.9063 232.857C94.3682 224.796 97.2708 215.259 97.2313 205.504V205.504C97.2363 197.572 95.3049 189.761 91.6067 182.754C91.3875 182.338 91.1831 181.965 90.9815 181.612L90.9573 181.568C90.9469 181.55 90.9368 181.531 90.9244 181.512L90.9065 181.482C90.8739 181.419 90.8384 181.357 90.8 181.294C90.6776 181.08 90.5611 180.878 90.4382 180.676C90.2761 180.4 90.1136 180.132 89.9478 179.868C84.0454 170.367 75.0711 163.198 64.5322 159.564C62.9767 159.03 61.3944 158.578 59.792 158.211C59.3585 158.112 58.9244 158.02 58.487 157.932C57.9545 157.823 57.5102 157.741 57.0884 157.673C56.8884 157.638 56.6912 157.606 56.4959 157.574L56.181 157.524C55.4515 157.417 54.7921 157.332 54.1739 157.266C53.0065 157.14 51.8086 157.056 50.6128 157.017C50.0714 156.998 49.5198 156.988 48.9722 156.988C48.8386 156.988 48.7116 156.988 48.583 156.991C48.508 156.989 48.4565 156.99 48.4051 156.99L47.8663 157.001C46.7786 157.025 45.6861 157.087 44.6193 157.184L44.5862 157.186C44.2128 157.217 43.8192 157.26 43.4257 157.306C42.8456 157.371 42.2925 157.445 41.7805 157.525C40.9149 157.654 40.0475 157.808 39.1997 157.984C29.8991 159.906 21.3693 164.544 14.6792 171.318C7.98912 178.091 3.43619 186.699 1.5909 196.063C-0.254377 205.427 0.690057 215.13 4.30587 223.956C7.92169 232.783 14.0481 240.34 21.9174 245.682C22.4157 246.026 22.9271 246.362 23.4399 246.681C24.4275 247.302 25.4511 247.894 26.4832 248.442C26.9129 248.671 27.3489 248.894 27.7805 249.104Z" fill="#CBCBCB"/>
<path d="M90.5495 194.898C90.0191 195.594 89.3433 196.164 88.5698 196.569C87.7963 196.974 86.9439 197.204 86.0725 197.242C85.2012 197.28 84.3322 197.125 83.5267 196.789C82.7213 196.453 81.9989 195.943 81.4105 195.296L68.5916 199.96L63.8726 192.82L82.0673 186.489C83.2143 185.567 84.6578 185.101 86.1241 185.178C87.5905 185.254 88.9779 185.869 90.0234 186.906C91.0689 187.942 91.7 189.328 91.7969 190.801C91.8939 192.274 91.45 193.732 90.5495 194.898V194.898Z" fill="#9F616A"/>
<path d="M50.4932 195.563L76.9024 186.787L81.3528 196.553L56.7307 204.144L50.4932 195.563Z" fill="#CCCCCC"/>
<path d="M60.3736 252.998C51.511 255.133 42.2312 254.735 33.5815 251.849L34.1725 246.232L34.7207 240.984L42.9445 228.201L45.5807 224.105L56.4439 228.076L57.5503 235.089L59.3132 246.275L60.3736 252.998Z" fill="#2F2E41"/>
<path d="M66.759 250.968C66.0466 251.255 65.3211 251.523 64.5923 251.77C63.7781 252.051 62.9552 252.308 62.1235 252.542C61.5457 252.704 60.9625 252.856 60.3737 252.998C51.5111 255.133 42.2313 254.735 33.5817 251.849C32.9021 251.622 32.2291 251.377 31.5627 251.123C31.6536 253.078 31.5944 255.036 31.3854 256.982C30.4371 254.702 29.6108 252.373 28.9101 250.004C28.8608 249.846 28.8149 249.688 28.7689 249.529C28.5391 248.73 28.3356 247.968 28.1517 247.252C27.9416 246.423 27.7611 245.654 27.61 244.951C27.0093 242.192 26.8188 240.486 26.8188 240.486L33.237 227.086L34.5206 227.234L35.0524 227.294L38.2697 227.663L42.9446 228.201L50.5183 229.07L57.5504 235.09L63.8503 240.486C63.8503 240.486 64.3756 242.281 65.1996 245.255C65.6461 246.852 66.1747 248.79 66.759 250.968Z" fill="#2F2E41"/>
<path d="M46.4115 161.833C52.6832 161.833 57.7674 156.721 57.7674 150.416C57.7674 144.111 52.6832 139 46.4115 139C40.1399 139 35.0557 144.111 35.0557 150.416C35.0557 156.721 40.1399 161.833 46.4115 161.833Z" fill="#9F616A"/>
<path d="M54.3166 174.466C54.3166 174.466 51.5873 165.985 45.1688 165.985C43.5641 165.985 40.9746 166.119 38.8695 167.5C30.3944 173.06 25.2385 182.51 24.8435 192.676L22.8701 243.464C22.8701 243.464 33.7323 247.435 37.6821 245.946C41.632 244.457 45.5819 234.53 45.5819 234.53C45.5819 234.53 44.5944 247.932 48.5443 247.435C52.4941 246.939 67.3062 245.946 67.7999 243.961C68.2936 241.975 60.2414 199.285 60.2414 199.285L54.3166 174.466Z" fill="#CCCCCC"/>
<path d="M40.8909 153.763C41.9096 153.702 42.9043 154.048 43.916 154.183C47.5355 154.666 51.3009 152.026 52.1001 148.444C52.1641 147.967 52.3056 147.504 52.5187 147.073C53.0757 146.159 54.3444 145.984 55.3902 146.195C56.4361 146.405 57.4274 146.897 58.4925 146.953C60.137 147.04 61.7158 146.022 62.5922 144.62C63.4686 143.219 63.7167 141.494 63.5984 139.843L62.8101 140.675C62.4897 139.993 62.366 139.235 62.4531 138.487C62.0353 138.375 61.596 138.373 61.1772 138.48C60.7583 138.588 60.374 138.802 60.061 139.102C59.3659 139.176 59.8905 137.806 59.3741 137.332C59.1229 137.177 58.8236 137.121 58.5336 137.174C57.0547 137.188 55.8584 136.051 54.6931 135.136C52.6739 133.553 50.3128 132.47 47.8004 131.975C46.1305 131.648 44.3547 131.595 42.7711 132.22C41.4705 132.733 40.3819 133.669 39.3747 134.642C36.8953 137.039 34.6998 139.855 33.6683 143.154C32.8298 145.856 32.806 148.747 33.6001 151.463C34.0157 152.873 35.2683 157.703 37.1021 157.816C39.4062 157.957 38.0228 153.935 40.8909 153.763Z" fill="#2F2E41"/>
<path opacity="0.1" d="M45.6858 189.498L34.0573 206.644L30.3384 246.471L45.6858 189.498Z" fill="black"/>
<path d="M94.97 179.016C95.2483 178.624 95.3553 178.221 95.209 178.116C95.0628 178.011 94.7186 178.244 94.4404 178.636C94.1621 179.028 94.0551 179.431 94.2013 179.536C94.3476 179.641 94.6917 179.408 94.97 179.016Z" fill="#3F3D56"/>
<path d="M79.4625 197.489C79.1348 197.254 78.9134 196.897 78.847 196.498C78.7806 196.099 78.8746 195.69 79.1085 195.36V195.36L92.3342 176.724C92.5681 176.395 92.9225 176.172 93.3196 176.105C93.7167 176.039 94.124 176.133 94.4517 176.368L79.4625 197.489L79.4625 197.489Z" fill="#605EC5"/>
<path d="M80.0054 199.351L79.2401 198.802C79.1088 198.708 78.9972 198.589 78.9117 198.451C78.8262 198.314 78.7685 198.161 78.7419 198.001C78.7153 197.841 78.7203 197.677 78.7566 197.519C78.7929 197.361 78.8599 197.212 78.9536 197.08L94.0122 175.861C94.172 175.636 94.4142 175.484 94.6855 175.438C94.9569 175.392 95.2352 175.457 95.4592 175.618V175.618L96.3801 176.278L80.0054 199.351H80.0054Z" fill="#2F2E41"/>
<path d="M93.558 178.003L92.5503 179.423L92.9034 179.677L93.911 178.257L93.558 178.003Z" fill="#D0CDE1"/>
<path d="M92.1722 179.956L91.1646 181.375L91.5176 181.629L92.5253 180.209L92.1722 179.956Z" fill="#D0CDE1"/>
<path d="M32.9785 259.462C33.488 258.75 33.8361 257.935 33.9982 257.073C34.1604 256.212 34.1327 255.325 33.917 254.475C33.7014 253.626 33.3031 252.834 32.7502 252.156C32.1974 251.478 31.5033 250.93 30.717 250.551L31.4535 236.866L23.2904 234.387L22.5202 253.728C21.974 255.098 21.9468 256.622 22.4437 258.012C22.9406 259.401 23.9271 260.558 25.2162 261.265C26.5053 261.972 28.0075 262.179 29.4382 261.846C30.8688 261.514 32.1285 260.665 32.9785 259.462H32.9785Z" fill="#9F616A"/>
<path d="M32.9346 248.204H21.125L17.8755 211.634L17.8866 211.6L28.94 178.965C29.3292 177.815 29.9522 176.76 30.7692 175.867C31.5862 174.973 32.5795 174.26 33.6857 173.773C34.7918 173.286 35.9867 173.037 37.1942 173.04C38.4016 173.043 39.5953 173.298 40.699 173.791C41.8027 174.283 42.7924 175.001 43.605 175.899C44.4176 176.797 45.0353 177.855 45.4188 179.006C45.8023 180.157 45.9431 181.376 45.8323 182.585C45.7216 183.793 45.3616 184.966 44.7754 186.027L31.7692 209.575L32.9346 248.204Z" fill="#CCCCCC"/>
<path d="M285.672 89.6062C285.681 99.2323 282.863 108.647 277.572 116.67C272.281 124.692 264.752 130.967 255.929 134.705C247.106 138.444 237.381 139.481 227.974 137.687C218.567 135.892 209.896 131.346 203.048 124.618C196.201 117.889 191.481 109.279 189.481 99.8651C187.481 90.4513 188.29 80.6535 191.805 71.6999C195.321 62.7462 201.388 55.0352 209.245 49.5334C217.101 44.0316 226.399 40.984 235.972 40.7725C236.123 40.7692 236.274 40.7659 236.428 40.7626C236.645 40.7593 236.865 40.7593 237.084 40.7593C237.636 40.7593 238.188 40.7692 238.736 40.789C239.944 40.8286 241.139 40.9122 242.321 41.0398C243.004 41.1124 243.677 41.2015 244.35 41.3006C244.425 41.3138 244.504 41.3237 244.579 41.3369C247.357 41.7673 250.091 42.4421 252.751 43.3534C262.353 46.6456 270.689 52.8752 276.593 61.1695C282.497 69.4638 285.671 79.4071 285.672 89.6062Z" fill="white"/>
<path d="M237.039 138.874C210.063 138.875 188.105 116.825 188.08 89.6987C188.068 76.8235 193.074 64.4562 202.025 55.2484C210.977 46.0406 223.16 40.7254 235.964 40.4424L236.42 40.4324C237.194 40.4213 237.981 40.4313 238.747 40.459C239.957 40.4988 241.171 40.5838 242.356 40.7117C242.983 40.7783 243.651 40.8642 244.397 40.9741L244.635 41.0116C256.166 42.8116 266.675 48.7006 274.262 57.6136C281.849 66.5267 286.013 77.8751 286 89.6062V89.6058C286.025 116.747 264.083 138.848 237.086 138.874L237.039 138.874ZM237.079 41.0893C236.862 41.0893 236.646 41.0893 236.432 41.0925L235.979 41.1025C209.904 41.6785 188.712 63.4785 188.736 89.698C188.761 116.459 210.427 138.212 237.039 138.214H237.085C263.72 138.188 285.368 116.383 285.343 89.6065V89.6062C285.356 78.0316 281.248 66.8347 273.762 58.041C266.276 49.2473 255.906 43.4376 244.529 41.663L244.293 41.6258C243.564 41.5185 242.905 41.4337 242.286 41.3681C241.117 41.2418 239.919 41.158 238.725 41.1188C238.183 41.0991 237.632 41.0893 237.084 41.0893H237.079Z" fill="#CBCBCB"/>
<path d="M199.906 92.2428C200.003 92.0902 199.752 91.7576 199.348 91.4999C198.943 91.2422 198.537 91.157 198.441 91.3096C198.345 91.4622 198.595 91.7948 198.999 92.0525C199.404 92.3102 199.81 92.3954 199.906 92.2428Z" fill="#3F3D56"/>
<path d="M198.486 89.4033C198.593 89.234 198.732 89.0874 198.895 88.972C199.058 88.8566 199.242 88.7746 199.436 88.7307C199.631 88.6868 199.832 88.6818 200.028 88.7161C200.225 88.7503 200.413 88.8232 200.581 88.9304V88.9304L219.82 101.178C219.988 101.285 220.134 101.425 220.249 101.589C220.363 101.753 220.445 101.938 220.489 102.133C220.532 102.329 220.537 102.531 220.503 102.728C220.469 102.926 220.397 103.115 220.29 103.284V103.284L198.486 89.4033V89.4033Z" fill="#605EC5"/>
<path d="M196.667 90.0513L197.272 89.0904C197.419 88.8568 197.652 88.6914 197.921 88.6308C198.189 88.5702 198.471 88.6193 198.703 88.7673L220.608 102.712C220.744 102.799 220.862 102.912 220.955 103.045C221.048 103.177 221.114 103.327 221.149 103.485C221.185 103.644 221.189 103.807 221.161 103.967C221.133 104.127 221.075 104.28 220.988 104.417L220.485 105.215L196.667 90.0513H196.667Z" fill="#2F2E41"/>
<path d="M199.927 90.5791L199.695 90.9475L201.161 91.8807L201.393 91.5123L199.927 90.5791Z" fill="#D0CDE1"/>
<path d="M201.943 91.8621L201.711 92.2305L203.177 93.1636L203.409 92.7952L201.943 91.8621Z" fill="#D0CDE1"/>
<path d="M237.214 45.7876C244.766 45.7876 250.888 39.6328 250.888 32.0405C250.888 24.4482 244.766 18.2935 237.214 18.2935C229.662 18.2935 223.54 24.4482 223.54 32.0405C223.54 39.6328 229.662 45.7876 237.214 45.7876Z" fill="#FFB8B8"/>
<path d="M250.235 136.644C239.142 139.759 227.31 138.83 216.832 134.02L217.882 105.801L217.961 103.606L217.99 102.894L218.027 101.844L218.053 101.174C218.053 101.174 218.095 101.171 218.178 101.167C218.401 101.151 218.916 101.115 219.655 101.072C220.512 101.022 221.664 100.959 223.007 100.903C223.325 100.89 223.653 100.877 223.992 100.86C231.063 100.596 242.107 100.54 243.568 102.682L243.752 103.943L244.047 105.979L244.651 110.141C244.651 110.141 251.519 123.871 250.235 136.644Z" fill="#2F2E41"/>
<path d="M253.707 65.4723L251.014 90.4832L245.885 101.89L243.984 106.12L216.469 105.784L219.304 86.505C215.301 76.1109 224.807 71.9197 224.807 71.9197L234.666 51.6103C234.666 51.6103 237.293 50.2902 244.15 49.9579C250.526 49.649 245.5 50.6202 245.5 50.6202C253.838 49.782 253.707 65.4723 253.707 65.4723Z" fill="#CCCCCC"/>
<path opacity="0.2" d="M245.433 91.8034L240.303 103.21C238.656 100.112 237.402 96.6031 237.402 94.531C237.402 88.831 243.072 91.8486 243.072 91.8486C243.072 91.8486 238.486 66.6178 238.486 59.0736C238.486 54.0626 242.641 76.301 245.433 91.8034Z" fill="black"/>
<path d="M252.973 23.6653C252.084 21.4828 250.707 19.5348 248.951 17.9714C249.671 17.7285 250.273 17.2191 250.633 16.5466C251.159 15.4993 250.88 14.1858 250.165 13.2484C249.513 12.4564 248.669 11.846 247.715 11.4758C248.414 11.7955 249.179 11.9433 249.946 11.9073C250.876 11.8101 251.805 11.0762 251.75 10.1658C251.698 9.29848 250.849 8.712 250.087 8.25937C249.593 7.96574 249.099 7.67213 248.605 7.37853C248.752 7.09329 248.881 6.79917 248.991 6.49787C249.417 5.40253 249.52 4.20671 249.287 3.05405C249.054 1.90139 248.495 0.840914 247.677 0C249.295 1.65606 248.881 4.21903 247.283 6.29894C247.231 6.36597 247.176 6.43133 247.122 6.49749C246.806 6.30926 246.489 6.12103 246.172 5.93282C245.382 5.46337 244.561 4.98294 243.643 4.87223C242.726 4.76152 241.68 5.1267 241.306 5.94962C240.905 6.83048 241.361 7.95458 240.838 8.77244C240.381 9.48809 239.383 9.64046 238.517 9.60658C237.652 9.57268 236.733 9.43529 235.963 9.82C234.893 10.3548 234.542 11.8011 235.017 12.8797C235.229 13.3391 235.544 13.7425 235.939 14.0577C233.648 14.3792 231.393 15.0629 229.176 15.7582C226.562 16.5781 223.9 17.449 221.715 19.1087C219.531 20.7683 217.876 23.3881 218.084 26.1329C218.292 28.8776 221.005 33.2006 223.708 32.7618L224.119 31.4666C225.754 30.6854 227.59 30.4368 229.372 30.7553C231.154 31.0738 232.793 31.9436 234.059 33.2433C234.09 31.5152 236.707 30.9411 238.01 32.0678C239.314 33.1944 239.566 35.0993 239.667 36.8247C239.768 38.5501 239.864 40.4288 240.994 41.7309C242.079 42.9806 243.927 43.3681 245.535 42.9958C247.143 42.6235 248.533 41.598 249.685 40.4099C253.862 36.0993 255.208 29.2485 252.973 23.6653Z" fill="#2F2E41"/>
<path d="M209.359 104.133C210.067 104.645 210.878 104.995 211.735 105.158C212.592 105.321 213.474 105.293 214.319 105.077C215.164 104.86 215.952 104.459 216.626 103.904C217.301 103.348 217.846 102.65 218.223 101.859L255.473 102.6L257.938 94.3932L215.062 93.6189C213.699 93.0699 212.183 93.0425 210.802 93.542C209.42 94.0416 208.269 95.0333 207.566 96.3293C206.863 97.6253 206.657 99.1356 206.987 100.574C207.318 102.012 208.162 103.279 209.359 104.133V104.133Z" fill="#FFB8B8"/>
<path d="M245.573 49.2662C245.573 49.2662 236.901 49.9368 236.901 57.481C236.901 65.0251 244.739 91.8486 244.739 91.8486C244.739 91.8486 239.069 88.831 239.069 94.531C239.069 100.231 248.574 116.828 249.575 105.763C249.575 105.763 263.916 112.805 263.082 99.5604C262.248 86.3163 253.244 58.3192 253.244 58.3192C253.244 58.3192 252.243 48.7633 245.573 49.2662Z" fill="#CCCCCC"/>
</g>
<defs>
<clipPath id="clip0">
<rect width="286" height="262" fill="white"/>
</clipPath>
</defs>
</svg>
