<svg width="779" height="539" viewBox="0 0 779 539" fill="none" xmlns="http://www.w3.org/2000/svg">
<g clip-path="url(#clip0)">
<path d="M743.752 353.876C757.653 353.876 768.922 342.42 768.922 328.287C768.922 314.155 757.653 302.698 743.752 302.698C729.851 302.698 718.582 314.155 718.582 328.287C718.582 342.42 729.851 353.876 743.752 353.876Z" fill="#2F2E41"/>
<path d="M639.786 1.2083e-08H146.945C145.067 0.00173551 143.268 0.760654 141.94 2.11017C140.613 3.45968 139.866 5.2895 139.865 7.19796V346.724C139.866 348.633 140.613 350.462 141.94 351.812C143.268 353.161 145.067 353.92 146.945 353.922H639.786C640.81 353.922 641.821 353.696 642.75 353.26C643.68 352.824 644.505 352.188 645.169 351.396C645.226 351.334 645.277 351.268 645.324 351.198C645.746 350.673 646.088 350.086 646.339 349.456C646.695 348.591 646.877 347.662 646.874 346.724V7.19799C646.872 5.28817 646.124 3.45729 644.795 2.10762C643.466 0.757949 641.664 -0.000110507 639.786 1.2083e-08ZM644.853 346.724C644.853 347.728 644.562 348.711 644.016 349.547C643.531 350.284 642.872 350.885 642.1 351.297C641.385 351.673 640.591 351.868 639.786 351.867H146.945C145.604 351.865 144.318 351.323 143.37 350.359C142.421 349.395 141.888 348.088 141.886 346.724V7.19799C141.888 5.8346 142.421 4.52753 143.37 3.56347C144.318 2.5994 145.604 2.05706 146.945 2.05541H639.786C641.128 2.05523 642.416 2.59672 643.366 3.56093C644.316 4.52515 644.851 5.83326 644.853 7.19799V346.724Z" fill="#3F3D56"/>
<path d="M645.859 28.8491H140.874V30.9068H645.859V28.8491Z" fill="#3F3D56"/>
<path d="M158.078 21.6058C161.431 21.6058 164.15 18.842 164.15 15.4326C164.15 12.0233 161.431 9.25952 158.078 9.25952C154.724 9.25952 152.006 12.0233 152.006 15.4326C152.006 18.842 154.724 21.6058 158.078 21.6058Z" fill="#6EFF61"/>
<path d="M175.534 21.6058C178.888 21.6058 181.606 18.842 181.606 15.4326C181.606 12.0233 178.888 9.25952 175.534 9.25952C172.181 9.25952 169.462 12.0233 169.462 15.4326C169.462 18.842 172.181 21.6058 175.534 21.6058Z" fill="#FCFF61"/>
<path d="M192.992 21.6058C196.345 21.6058 199.064 18.842 199.064 15.4326C199.064 12.0233 196.345 9.25952 192.992 9.25952C189.638 9.25952 186.92 12.0233 186.92 15.4326C186.92 18.842 189.638 21.6058 192.992 21.6058Z" fill="#FF6161"/>
<path d="M469.886 69.4263H291.152C288.213 69.4305 285.394 70.6197 283.316 72.733C281.237 74.8464 280.067 77.7116 280.063 80.7003V310.16C280.067 313.149 281.237 316.014 283.316 318.127C285.394 320.241 288.213 321.43 291.152 321.434H469.886C472.826 321.43 475.644 320.241 477.723 318.127C479.801 316.014 480.971 313.149 480.975 310.16V80.7003C480.971 77.7115 479.801 74.8464 477.722 72.733C475.644 70.6196 472.826 69.4305 469.886 69.4263ZM479.67 310.16C479.667 312.797 478.635 315.326 476.801 317.19C474.967 319.055 472.48 320.104 469.886 320.108H291.152C288.558 320.104 286.071 319.055 284.237 317.19C282.403 315.326 281.371 312.797 281.368 310.16V80.7003C281.371 78.063 282.403 75.5346 284.237 73.6698C286.071 71.8049 288.558 70.7558 291.152 70.7526H469.886C472.48 70.7558 474.967 71.8049 476.801 73.6698C478.635 75.5346 479.667 78.063 479.67 80.7003V310.16Z" fill="#E6E6E6"/>
<path d="M351.288 228.475H320.741C317.62 228.42 317.607 210.863 320.741 210.803H351.288C354.406 210.857 354.423 228.415 351.288 228.475Z" fill="#E6E6E6"/>
<path d="M440.389 228.475H406.569C403.114 228.42 403.1 210.863 406.569 210.803H440.389C443.842 210.857 443.86 228.415 440.389 228.475Z" fill="#E6E6E6"/>
<path d="M396.342 228.476H362.522C359.067 228.468 359.053 225.96 362.522 225.951H396.342C399.795 225.959 399.814 228.467 396.342 228.476Z" fill="#E6E6E6"/>
<path d="M379.226 260.033H351.952C349.166 259.977 349.154 242.421 351.952 242.361H379.226C382.01 242.415 382.025 259.972 379.226 260.033Z" fill="#E6E6E6"/>
<path d="M436.783 260.033H388.78C383.877 260.025 383.857 257.517 388.781 257.508H436.783C441.683 257.516 441.71 260.024 436.783 260.033Z" fill="#E6E6E6"/>
<path d="M339.541 260.033H319.903C317.897 259.977 317.889 242.421 319.903 242.361H339.541C341.545 242.415 341.556 259.972 339.541 260.033Z" fill="#E6E6E6"/>
<path d="M353.554 291.59H319.734C316.279 291.582 316.265 289.074 319.734 289.066H353.554C357.006 289.073 357.025 291.582 353.554 291.59Z" fill="#E6E6E6"/>
<path d="M398.775 291.59H363.864C360.298 291.538 360.283 275.236 363.864 275.18H398.775C402.339 275.23 402.358 291.534 398.775 291.59Z" fill="#E6E6E6"/>
<path d="M440.808 291.59H412.443C409.545 291.538 409.533 275.236 412.443 275.18H440.808C443.704 275.23 443.719 291.534 440.808 291.59Z" fill="#E6E6E6"/>
<path d="M432.27 193.65H327.9C325.047 193.646 322.311 192.492 320.293 190.441C318.275 188.39 317.14 185.608 317.137 182.707V123.287C317.14 120.386 318.275 117.604 320.293 115.553C322.311 113.501 325.047 112.348 327.9 112.344H432.27C435.124 112.348 437.859 113.501 439.877 115.553C441.895 117.604 443.03 120.386 443.033 123.287V182.707C443.03 185.608 441.895 188.39 439.877 190.441C437.859 192.492 435.124 193.646 432.27 193.65Z" fill="#E6E6E6"/>
<path d="M350.223 133.803H329.357C328.786 133.803 328.239 133.606 327.836 133.255C327.433 132.905 327.206 132.43 327.205 131.934V121.787C327.206 121.291 327.433 120.816 327.836 120.466C328.239 120.116 328.786 119.919 329.357 119.918H350.223C350.793 119.919 351.34 120.116 351.744 120.466C352.147 120.816 352.374 121.291 352.375 121.787V131.934C352.374 132.43 352.147 132.905 351.744 133.255C351.34 133.606 350.793 133.803 350.223 133.803Z" fill="#D0D0D0"/>
<path d="M411.598 133.803H400.122C399.808 133.803 399.507 133.606 399.286 133.255C399.064 132.905 398.939 132.43 398.938 131.934V121.787C398.939 121.291 399.064 120.816 399.286 120.466C399.507 120.116 399.808 119.919 400.122 119.918H411.598C411.912 119.919 412.213 120.116 412.435 120.466C412.657 120.816 412.781 121.291 412.782 121.787V131.934C412.781 132.43 412.657 132.905 412.435 133.255C412.213 133.606 411.912 133.803 411.598 133.803Z" fill="#D0D0D0"/>
<path d="M434.251 133.803H422.775C422.461 133.803 422.16 133.606 421.938 133.255C421.716 132.905 421.592 132.43 421.591 131.934V121.787C421.592 121.291 421.716 120.816 421.938 120.466C422.16 120.116 422.461 119.919 422.775 119.918H434.251C434.565 119.919 434.866 120.116 435.088 120.466C435.309 120.816 435.434 121.291 435.435 121.787V131.934C435.434 132.43 435.309 132.905 435.088 133.255C434.866 133.606 434.565 133.803 434.251 133.803Z" fill="#D0D0D0"/>
<path d="M388.805 133.803H363.766C363.082 133.803 362.425 133.606 361.941 133.255C361.457 132.905 361.185 132.43 361.184 131.934V121.787C361.185 121.291 361.457 120.816 361.941 120.466C362.425 120.116 363.082 119.919 363.766 119.918H388.805C389.49 119.919 390.146 120.116 390.631 120.466C391.115 120.816 391.387 121.291 391.388 121.787V131.934C391.387 132.43 391.115 132.905 390.631 133.255C390.146 133.606 389.49 133.803 388.805 133.803Z" fill="#D0D0D0"/>
<path d="M359.43 157.787H330.218C329.419 157.786 328.653 157.589 328.088 157.239C327.524 156.889 327.206 156.414 327.205 155.918V145.77C327.206 145.275 327.524 144.8 328.088 144.45C328.653 144.099 329.419 143.902 330.218 143.902H359.43C360.229 143.902 360.994 144.099 361.559 144.45C362.124 144.8 362.442 145.275 362.443 145.77V155.918C362.442 156.414 362.124 156.889 361.559 157.239C360.994 157.589 360.229 157.786 359.43 157.787Z" fill="#D0D0D0"/>
<path d="M421.891 157.787H375.986C374.731 157.786 373.528 157.589 372.64 157.239C371.753 156.889 371.253 156.414 371.252 155.918V145.77C371.253 145.275 371.753 144.8 372.64 144.45C373.528 144.099 374.731 143.902 375.986 143.902H421.891C423.146 143.902 424.35 144.099 425.237 144.45C426.125 144.8 426.624 145.275 426.625 145.77V155.918C426.624 156.414 426.125 156.889 425.237 157.239C424.35 157.589 423.146 157.786 421.891 157.787Z" fill="#D0D0D0"/>
<path d="M341.149 232.888L318.396 246.421L319.903 249.045L342.657 235.512L341.149 232.888Z" fill="#3F3D56"/>
<path d="M357.661 224.829C348.658 226.473 336.748 227.226 328.174 225.62L339.836 235.43L342.513 250.58C345.344 242.191 351.834 232.002 357.661 224.829Z" fill="#3F3D56"/>
<path d="M284.807 289.284C298.924 289.284 310.368 277.649 310.368 263.298C310.368 248.946 298.924 237.312 284.807 237.312C270.691 237.312 259.247 248.946 259.247 263.298C259.247 277.649 270.691 289.284 284.807 289.284Z" fill="#605EC5"/>
<path d="M474.728 154.443L473.85 157.341L499.062 165.373L499.94 162.475L474.728 154.443Z" fill="#3F3D56"/>
<path d="M456.829 150.331C465.97 149.894 477.742 147.931 485.733 144.425L476.58 156.623L477.381 171.987C472.735 164.456 464.12 155.999 456.829 150.331Z" fill="#3F3D56"/>
<path d="M546.503 192.559C557.467 183.64 559.048 167.373 550.035 156.227C541.021 145.081 524.827 143.276 513.863 152.195C502.899 161.114 501.318 177.381 510.332 188.527C519.345 199.673 535.54 201.479 546.503 192.559Z" fill="#605EC5"/>
<path d="M768.641 447.497H729.661C729.661 448.636 689.486 449.561 689.486 449.561C688.856 450.043 688.281 450.597 687.773 451.212C686.247 453.062 685.413 455.401 685.418 457.815V459.466C685.419 462.202 686.489 464.826 688.392 466.761C690.295 468.696 692.876 469.783 695.568 469.784H768.641C771.332 469.782 773.912 468.694 775.815 466.76C777.718 464.825 778.788 462.202 778.79 459.466V457.815C778.787 455.08 777.716 452.458 775.814 450.523C773.911 448.589 771.332 447.501 768.641 447.497Z" fill="#E6E6E6"/>
<path d="M737.784 469.375H727.229V538.713H737.784V469.375Z" fill="#E6E6E6"/>
<path d="M767.825 538.336C767.825 539.495 751.831 538.784 732.1 538.784C712.37 538.784 696.375 539.495 696.375 538.336C696.375 537.176 712.37 527.982 732.1 527.982C751.831 527.982 767.825 537.176 767.825 538.336Z" fill="#E6E6E6"/>
<path d="M679.317 529.216H669.363L664.627 490.182H679.319L679.317 529.216Z" fill="#FFB8B8"/>
<path d="M662.253 526.324H681.45V538.612H650.166C650.166 535.353 651.439 532.228 653.706 529.923C655.973 527.618 659.047 526.324 662.253 526.324V526.324Z" fill="#2F2E41"/>
<path d="M663.779 523.568L654.282 520.538L661.258 481.853L675.275 486.325L663.779 523.568Z" fill="#FFB8B8"/>
<path d="M648.349 515.614L666.666 521.458L663.047 533.183L633.198 523.66C633.673 522.12 634.442 520.691 635.461 519.453C636.479 518.215 637.728 517.194 639.135 516.447C640.542 515.7 642.08 515.242 643.661 515.099C645.242 514.956 646.835 515.131 648.349 515.614V515.614Z" fill="#2F2E41"/>
<path d="M741.983 440.731C741.753 438.764 741.34 436.823 740.749 434.936L738.889 432.559L734.05 426.384L733.839 426.393C733.482 426.409 731.996 426.492 729.698 426.673H729.674C728.253 426.789 726.515 426.937 724.542 427.127C724.023 427.185 723.479 427.235 722.919 427.292V435.91H733.068C733.561 435.911 734.037 436.094 734.407 436.425C734.778 436.756 735.017 437.212 735.081 437.71C735.089 437.8 735.098 437.883 735.098 437.974C735.097 438.521 734.883 439.046 734.503 439.433C734.122 439.82 733.606 440.037 733.068 440.037H674.122C673.371 440.544 672.649 441.096 671.962 441.688C669.885 443.323 668.389 445.6 667.699 448.176C664.257 463.563 657.981 492.256 656.129 500.684C655.995 501.319 656.025 501.978 656.218 502.597C656.41 503.217 656.757 503.775 657.225 504.217C657.571 504.544 657.976 504.799 658.419 504.968L665.743 507.758C666.044 507.871 666.357 507.946 666.676 507.981C666.717 507.981 666.749 507.989 666.79 507.989C666.866 507.996 666.941 507.998 667.017 507.997C667.758 507.994 668.48 507.764 669.09 507.337C669.7 506.91 670.169 506.306 670.435 505.603L676.216 490.184L685.123 466.411L688.647 457.009C692.731 457.983 726.995 465.692 738.467 453.269C739.599 452.045 740.492 450.614 741.098 449.051C742.063 446.394 742.367 443.536 741.983 440.731Z" fill="#2F2E41"/>
<path d="M751.92 442.976C751.742 442.241 751.539 441.482 751.303 440.714L744.605 432.163L744.394 432.171C743.971 432.196 741.966 432.303 738.889 432.559C735.398 432.856 730.518 433.335 725.037 434.086C724.875 434.102 724.705 434.127 724.542 434.152C724.006 434.226 723.462 434.301 722.918 434.383V435.91H733.067C733.561 435.911 734.037 436.094 734.407 436.425C734.778 436.756 735.017 437.212 735.081 437.71C735.089 437.8 735.097 437.883 735.097 437.974C735.097 438.521 734.883 439.046 734.502 439.433C734.122 439.82 733.606 440.037 733.067 440.037H697.196C695.629 440.558 694.119 441.102 692.674 441.688C685.091 444.743 679.415 448.746 678.254 453.955C677.864 455.705 677.434 457.628 676.979 459.675C675.29 467.286 673.236 476.605 671.377 485.074V485.083C670.995 486.833 670.614 488.533 670.248 490.184C668.697 497.283 667.382 503.3 666.684 506.462C666.668 506.553 666.652 506.635 666.635 506.726V506.742C666.554 507.382 666.632 508.032 666.863 508.633L666.87 508.641V508.649C667.094 509.225 667.457 509.733 667.926 510.127C668.24 510.39 668.594 510.599 668.974 510.746L676.297 513.536C676.705 513.691 677.136 513.772 677.572 513.775C678.182 513.777 678.783 513.621 679.317 513.321C680.085 512.898 680.678 512.21 680.99 511.381L696.758 469.316L699.202 462.787C703.286 463.761 737.549 471.462 749.022 459.048C751.288 456.554 752.581 453.304 752.659 449.91C752.739 447.575 752.49 445.24 751.92 442.976V442.976Z" fill="#2F2E41"/>
<path d="M751.019 370.154C750.889 369.998 750.751 369.841 750.605 369.692C748.442 367.381 745.772 365.623 742.813 364.563C739.853 363.502 736.689 363.17 733.579 363.592C730.866 363.954 728.178 364.492 725.532 365.202C722.115 366.095 718.987 367.879 716.455 370.377C714.483 372.321 712.93 374.66 711.895 377.246C710.859 379.833 710.363 382.609 710.439 385.401C710.471 386.531 710.479 387.687 710.463 388.859C710.463 389.404 710.455 389.957 710.447 390.51H718.453C718.8 390.509 719.146 390.551 719.484 390.634C720.461 390.871 721.331 391.436 721.954 392.237C722.577 393.038 722.916 394.029 722.918 395.05V433.45C723.462 433.607 724.006 433.764 724.542 433.929C724.713 433.987 724.875 434.036 725.037 434.086C725.224 434.144 725.411 434.201 725.589 434.259C727.237 434.779 728.848 435.329 730.42 435.91H733.067C733.56 435.911 734.037 436.094 734.407 436.425C734.778 436.756 735.017 437.212 735.081 437.71C735.633 437.932 736.169 438.155 736.696 438.378C738.572 439.171 740.35 439.963 741.982 440.731C744.183 441.754 746.139 442.728 747.78 443.578C748.295 443.846 748.865 443.987 749.444 443.991C750.204 443.989 750.943 443.74 751.555 443.281C751.682 443.186 751.804 443.084 751.92 442.976C752.355 442.562 752.683 442.046 752.877 441.473C753.071 440.901 753.124 440.289 753.033 439.691C752.194 433.206 751.95 426.657 752.302 420.127C752.529 414.638 753.016 409.008 753.65 403.569C753.991 400.622 754.372 397.733 754.77 394.951C755.152 392.293 755.558 389.742 755.956 387.332C756.478 384.276 756.304 381.138 755.448 378.161C754.593 375.183 753.077 372.444 751.019 370.154V370.154Z" fill="#605EC5"/>
<path d="M717.738 370.831C717.322 370.649 716.893 370.498 716.455 370.377C714.292 369.785 711.99 370.003 709.972 370.993C707.954 371.983 706.353 373.677 705.462 375.767L699.884 388.859L699.186 390.51H718.453C718.8 390.509 719.146 390.551 719.484 390.634L720.133 389.107L722.601 383.312C723.582 381.001 723.62 378.389 722.709 376.049C721.797 373.709 720.009 371.833 717.738 370.831Z" fill="#605EC5"/>
<path d="M735.061 357.146C746.075 357.146 755.003 348.069 755.003 336.872C755.003 325.675 746.075 316.598 735.061 316.598C724.048 316.598 715.12 325.675 715.12 336.872C715.12 348.069 724.048 357.146 735.061 357.146Z" fill="#FFB8B8"/>
<path d="M754.77 394.951L743.387 395.265L742.559 403.395L742.372 405.277L724.542 413.416L722.918 414.159V428.63L724.542 428.159L729.673 426.673H729.698L752.302 420.127L752.561 420.053C754.388 419.517 755.995 418.396 757.145 416.857C758.295 415.318 758.926 413.442 758.943 411.51L759 401.91L759.049 394.835L754.77 394.951Z" fill="#FFB8B8"/>
<path d="M758.473 378.871C758.322 376.358 757.194 374.009 755.339 372.341C753.483 370.673 751.052 369.823 748.58 369.977C746.108 370.131 743.797 371.278 742.157 373.164C740.516 375.05 739.68 377.522 739.832 380.035L741.074 400.638C741.107 401.181 741.258 401.709 741.514 402.185C741.771 402.662 742.128 403.075 742.559 403.395C743.246 403.916 744.092 404.17 744.946 404.114L753.651 403.569L756.289 403.404C756.77 403.38 757.241 403.257 757.673 403.043C758.106 402.828 758.492 402.527 758.806 402.157C758.876 402.079 758.941 401.996 759.001 401.91C759.517 401.207 759.77 400.341 759.715 399.466L758.473 378.871Z" fill="#605EC5"/>
<path d="M725.59 434.26H724.542V434.152C724.006 434.227 723.462 434.301 722.918 434.383V435.91H730.42C728.845 435.333 727.235 434.782 725.59 434.26ZM725.59 434.26H724.542V434.152C724.006 434.227 723.462 434.301 722.918 434.383V435.91H730.42C728.845 435.333 727.235 434.782 725.59 434.26ZM733.068 434.26H724.542V395.05C724.539 393.708 724.108 392.403 723.313 391.331C722.518 390.259 721.402 389.479 720.133 389.107C719.588 388.94 719.022 388.857 718.453 388.859H646.191C644.577 388.861 643.029 389.514 641.887 390.675C640.746 391.836 640.104 393.409 640.102 395.05V435.498C640.102 437.139 640.744 438.714 641.886 439.875C643.028 441.036 644.576 441.688 646.191 441.689H733.068C733.967 441.687 734.834 441.349 735.504 440.738C736.173 440.127 736.598 439.287 736.697 438.379C736.713 438.244 736.721 438.109 736.721 437.974C736.72 436.989 736.334 436.045 735.65 435.349C734.965 434.653 734.036 434.261 733.068 434.26V434.26ZM735.097 437.974C735.097 438.521 734.883 439.046 734.503 439.433C734.122 439.82 733.606 440.038 733.068 440.038H646.191C645.007 440.037 643.871 439.558 643.034 438.707C642.197 437.856 641.726 436.702 641.725 435.498V395.05C641.726 393.847 642.197 392.692 643.034 391.841C643.871 390.99 645.007 390.511 646.191 390.51H718.453C718.8 390.509 719.146 390.551 719.484 390.634C720.461 390.872 721.331 391.436 721.954 392.237C722.577 393.038 722.917 394.029 722.918 395.05V435.91H733.068C733.561 435.911 734.037 436.094 734.407 436.425C734.778 436.756 735.017 437.213 735.081 437.71C735.089 437.801 735.097 437.883 735.097 437.974V437.974ZM725.59 434.26H724.542V434.152C724.006 434.227 723.462 434.301 722.918 434.383V435.91H730.42C728.845 435.333 727.235 434.782 725.59 434.26Z" fill="#3F3D56"/>
<path d="M682.32 420.227C685.01 420.227 687.191 418.01 687.191 415.275C687.191 412.539 685.01 410.322 682.32 410.322C679.629 410.322 677.448 412.539 677.448 415.275C677.448 418.01 679.629 420.227 682.32 420.227Z" fill="#605EC5"/>
<path d="M0 456.99V458.641C0.00233704 461.377 1.07237 464 2.97519 465.934C4.87801 467.869 7.45813 468.957 10.1491 468.959H83.2228C85.9142 468.958 88.4951 467.871 90.3982 465.936C92.3014 464.001 93.3709 461.377 93.3719 458.641V456.99C93.377 454.575 92.543 452.237 91.017 450.386C90.5092 449.772 89.9345 449.218 89.304 448.736C89.304 448.736 49.1297 447.811 49.1297 446.672H10.1491C7.45855 446.676 4.87925 447.764 2.97673 449.698C1.0742 451.632 0.00372462 454.255 0 456.99V456.99Z" fill="#E6E6E6"/>
<path d="M41.0064 537.887H51.5615L51.5615 468.549H41.0064L41.0064 537.887Z" fill="#E6E6E6"/>
<path d="M10.9648 537.51C10.9648 538.67 26.9594 537.959 46.6898 537.959C66.4201 537.959 82.4147 538.67 82.4147 537.51C82.4147 536.351 66.4201 527.156 46.6898 527.156C26.9594 527.156 10.9648 536.351 10.9648 537.51Z" fill="#E6E6E6"/>
<path d="M99.9484 529.019L109.903 529.018L114.638 489.984L99.9468 489.985L99.9484 529.019Z" fill="#A0616A"/>
<path d="M129.1 538.415L97.8159 538.416L97.8153 526.128L117.012 526.127C118.6 526.127 120.172 526.445 121.638 527.062C123.105 527.679 124.437 528.585 125.559 529.726C126.682 530.867 127.572 532.221 128.18 533.712C128.787 535.203 129.1 536.801 129.1 538.415L129.1 538.415Z" fill="#2F2E41"/>
<path d="M115.487 523.371L124.984 520.34L118.008 481.656L103.991 486.128L115.487 523.371Z" fill="#A0616A"/>
<path d="M146.068 523.463L116.219 532.986L112.6 521.261L130.917 515.418C133.975 514.442 137.29 514.741 140.131 516.25C142.973 517.759 145.109 520.353 146.068 523.463V523.463V523.463Z" fill="#2F2E41"/>
<path d="M123.135 500.488C121.292 492.06 115.008 463.368 111.565 447.981C110.907 445.502 109.491 443.299 107.522 441.691C106.857 441.099 106.157 440.547 105.427 440.04H51.596C51.0578 440.04 50.5416 439.823 50.161 439.436C49.7804 439.049 49.5664 438.524 49.5662 437.977C49.5662 437.886 49.5745 437.803 49.5825 437.713C49.6463 437.215 49.8858 436.759 50.2562 436.428C50.6267 436.097 51.1028 435.914 51.596 435.913H61.7452V427.716C61.1933 427.65 60.6573 427.584 60.1213 427.526C55.8749 427.015 52.2212 426.684 49.607 426.478C47.285 426.297 45.7829 426.214 45.4257 426.197L45.2144 426.181L40.3753 432.364L38.5159 434.741C37.9242 436.625 37.5109 438.563 37.2818 440.527C36.7054 445.711 37.8828 449.921 40.7975 453.074C52.27 465.489 86.5336 457.788 90.6174 456.814L108.829 505.408C109.095 506.111 109.563 506.715 110.174 507.141C110.784 507.567 111.507 507.794 112.247 507.794C112.361 507.794 112.475 507.785 112.588 507.777C112.907 507.747 113.221 507.675 113.522 507.563L120.846 504.772C121.668 504.454 122.351 503.847 122.771 503.062C123.191 502.276 123.32 501.363 123.135 500.488Z" fill="#2F2E41"/>
<path d="M112.58 506.266C110.737 497.839 104.453 469.146 101.01 453.759C99.8654 448.658 94.4091 444.721 87.0696 441.691C85.6646 441.105 84.187 440.56 82.6523 440.04H51.596C51.0578 440.04 50.5416 439.823 50.161 439.436C49.7804 439.049 49.5664 438.524 49.5662 437.977C49.5662 437.886 49.5745 437.803 49.5825 437.712C49.6463 437.215 49.8858 436.759 50.2562 436.427C50.6267 436.096 51.1028 435.914 51.596 435.913H61.7452V435.038C60.6169 434.84 59.4882 434.658 58.3841 434.485C57.8806 434.411 57.3771 434.336 56.8736 434.262C55.9724 434.13 55.0874 434.006 54.2186 433.891C48.738 433.139 43.8665 432.661 40.3753 432.363C37.2981 432.108 35.2924 432 34.8706 431.976L34.6593 431.959L27.9609 440.519C27.7254 441.287 27.5224 442.046 27.344 442.781C25.7202 449.616 26.6942 455.006 30.2425 458.852C41.7149 471.267 75.9785 463.566 80.0624 462.592L98.2741 511.186C98.6212 512.1 99.308 512.838 100.186 513.241C101.064 513.644 102.063 513.68 102.967 513.341L110.29 510.551C110.874 510.326 111.392 509.953 111.794 509.468C112.197 508.982 112.47 508.4 112.588 507.777C112.695 507.279 112.692 506.763 112.58 506.266V506.266Z" fill="#2F2E41"/>
<path d="M102.342 410.324C101.403 410.324 100.485 410.6 99.6971 411.119C98.9093 411.637 98.2855 412.376 97.9009 413.246L105.29 411.331C104.444 410.673 103.407 410.319 102.342 410.324Z" fill="#A0616A"/>
<path d="M68.833 384.669C68.8356 381.966 68.3036 379.289 67.2686 376.799C66.2337 374.309 64.717 372.056 62.8086 370.174C60.2796 367.678 57.1534 365.897 53.7394 365.007C51.0902 364.298 48.4002 363.758 45.6851 363.389C42.5744 362.971 39.4105 363.306 36.4516 364.368C33.4926 365.429 30.8224 367.187 28.6587 369.497C28.5129 369.646 28.3749 369.802 28.2449 369.959C26.1859 372.249 24.6704 374.988 23.8147 377.965C22.9589 380.943 22.7857 384.081 23.3082 387.137C23.7063 389.547 24.1123 392.098 24.4937 394.756C24.8917 397.538 25.2731 400.427 25.614 403.374C26.2476 408.814 26.7348 414.443 26.962 419.924C27.3182 426.457 27.0736 433.009 26.2313 439.496C26.1396 440.094 26.193 440.706 26.3869 441.279C26.5807 441.851 26.9092 442.367 27.3437 442.781C27.46 442.889 27.5819 442.991 27.7089 443.086C28.247 443.492 28.8873 443.735 29.5555 443.786C30.2237 443.837 30.8924 443.695 31.4843 443.375C33.1244 442.525 35.0813 441.551 37.2816 440.527C40.6022 438.984 44.4752 437.316 48.6486 435.781C50.0857 435.253 51.5633 434.741 53.0575 434.262C53.4389 434.138 53.8286 434.015 54.2183 433.891C56.1589 433.288 58.1321 432.727 60.121 432.248C60.665 432.116 61.201 431.992 61.7449 431.877V395.053C61.7467 394.032 62.0865 393.041 62.7095 392.24C63.3325 391.439 64.2024 390.874 65.1794 390.637C65.5169 390.554 65.8632 390.512 66.2105 390.513H68.8251C68.8089 389.96 68.8009 389.407 68.8009 388.862C68.7843 387.624 68.7926 386.402 68.8251 385.205C68.833 385.024 68.833 384.842 68.833 384.669Z" fill="#CCCCCC"/>
<path d="M79.4618 388.862L73.8025 375.572C72.9105 373.483 71.3099 371.788 69.2921 370.797C67.2743 369.806 64.9736 369.585 62.8089 370.174C62.3713 370.294 61.9426 370.446 61.526 370.628C59.2545 371.631 57.4669 373.509 56.5553 375.851C55.6437 378.192 55.6823 380.805 56.6628 383.117L60.6653 392.511L61.7453 395.053C61.7471 394.032 62.0868 393.041 62.7098 392.24C63.3328 391.439 64.2028 390.874 65.1797 390.637C65.5173 390.554 65.8635 390.512 66.2109 390.513H80.16L79.4618 388.862Z" fill="#CCCCCC"/>
<path d="M44.2045 356.95C55.2181 356.95 64.1464 347.873 64.1464 336.676C64.1464 325.479 55.2181 316.402 44.2045 316.402C33.191 316.402 24.2627 325.479 24.2627 336.676C24.2627 347.873 33.191 356.95 44.2045 356.95Z" fill="#A0616A"/>
<path d="M32.1532 354.688C31.8707 355.019 31.5257 355.29 31.1385 355.483C30.7514 355.677 30.33 355.79 29.8993 355.815C29.4685 355.84 29.0372 355.777 28.6308 355.63C28.2244 355.482 27.8512 355.254 27.5332 354.957C23.0865 351.298 19.5598 346.616 17.2442 341.297C14.6517 335.015 14.2717 327.348 17.2223 321.459C19.7165 316.481 24.194 313.312 28.664 310.722C30.3775 309.624 32.2554 308.818 34.2239 308.333C35.2182 308.104 36.2487 308.088 37.2491 308.288C38.2495 308.488 39.1976 308.899 40.0324 309.494C40.9182 310.179 41.6038 311.096 42.0155 312.147C42.4272 313.198 42.5494 314.344 42.3692 315.46C44.4138 312.722 47.1703 310.618 50.3278 309.388C52.2651 308.54 54.4296 308.392 56.4609 308.97C59.3315 309.944 61.4563 312.891 62.6387 316.057C63.5949 318.481 63.9452 321.109 63.658 323.704C63.5328 324.943 63.161 326.144 62.5651 327.232C61.9692 328.321 61.1618 329.275 60.1918 330.036C57.8503 331.679 54.8337 331.512 52.1106 330.785C49.3875 330.058 46.7447 328.826 43.974 328.482C41.2034 328.138 38.1328 328.883 36.4821 331.396C35.3196 333.165 35.0456 335.496 34.8084 337.717L33.5745 349.273C33.4874 350.926 33.1371 352.554 32.5372 354.093C32.4357 354.308 32.3066 354.508 32.1532 354.688V354.688Z" fill="#2F2E41"/>
<path d="M60.1216 415.681L36.8924 405.082L36.7056 403.2L35.8775 395.069L24.4942 394.756L20.2153 394.64L20.2641 401.714L20.3208 411.314C20.3388 413.246 20.9696 415.12 22.1195 416.658C23.2694 418.196 24.8769 419.315 26.7028 419.85L26.9625 419.924L49.6074 426.478L60.1216 429.524L61.7455 429.994V416.424L60.1216 415.681Z" fill="#A0616A"/>
<path d="M30.6888 369.786C29.4652 369.708 28.2385 369.877 27.079 370.282C25.9196 370.687 24.85 371.321 23.9315 372.146C23.0131 372.972 22.2637 373.974 21.7264 375.094C21.189 376.214 20.8741 377.432 20.7998 378.676L19.5494 399.271C19.4984 400.145 19.7513 401.01 20.2638 401.714C20.3237 401.801 20.3888 401.883 20.4589 401.962C20.7647 402.313 21.134 402.602 21.5467 402.812C21.9905 403.044 22.4772 403.179 22.9755 403.208L25.6143 403.373L34.3184 403.918C35.2858 403.976 36.2363 403.642 36.9621 402.989C37.6879 402.336 38.1299 401.418 38.1913 400.435L39.4334 379.84C39.5831 377.328 38.7464 374.859 37.1069 372.973C35.4674 371.088 33.1591 369.942 30.6888 369.786V369.786Z" fill="#CCCCCC"/>
<path d="M750.284 352.444C748.585 353.374 746.467 354.292 744.848 353.169C743.267 352.073 743.155 349.634 743.7 347.738C744.246 345.842 745.269 344.07 745.364 342.085C745.5 339.24 743.632 336.599 741.312 335.122C738.992 333.644 736.272 333.104 733.619 332.589L719.066 329.766C715.464 329.068 711.564 328.195 709.16 325.247C705.682 320.981 707.19 313.867 711.31 310.413C715.43 306.96 721.237 306.572 726.423 307.733C729.291 308.375 732.089 309.441 735.002 309.753C740.751 310.368 746.831 308.054 752.165 310.459C756.809 312.553 759.623 317.87 760.279 323.155C760.935 328.44 759.789 333.751 758.509 338.88C757.748 341.93 756.909 345.027 755.229 347.622C753.549 350.217 750.863 352.27 747.875 352.309L750.284 352.444Z" fill="#2F2E41"/>
<path d="M762.759 329.288C771.727 329.288 778.997 321.897 778.997 312.779C778.997 303.661 771.727 296.27 762.759 296.27C753.791 296.27 746.521 303.661 746.521 312.779C746.521 321.897 753.791 329.288 762.759 329.288Z" fill="#2F2E41"/>
<path d="M60.1213 434.155V434.262H59.0739C58.8468 434.336 58.6113 434.411 58.3841 434.485C56.9795 434.939 55.5992 435.415 54.2432 435.913H61.7452V434.386C61.2013 434.303 60.6573 434.229 60.1213 434.155ZM60.1213 434.155V434.262H59.0739C58.8468 434.336 58.6113 434.411 58.3841 434.485C56.9795 434.939 55.5992 435.415 54.2432 435.913H61.7452V434.386C61.2013 434.303 60.6573 434.229 60.1213 434.155ZM60.1213 434.155V434.262H59.0739C58.8468 434.336 58.6113 434.411 58.3841 434.485C59.4882 434.658 60.6169 434.84 61.7452 435.038V434.386C61.2013 434.303 60.6573 434.229 60.1213 434.155ZM60.1213 432.248V434.262H59.0739C58.8468 434.336 58.6113 434.411 58.3841 434.485C56.9795 434.939 55.5992 435.415 54.2432 435.913H61.7452V431.876C61.2013 431.992 60.6653 432.116 60.1213 432.248ZM60.1213 432.248V434.262H59.0739C58.8468 434.336 58.6113 434.411 58.3841 434.485C56.9795 434.939 55.5992 435.415 54.2432 435.913H61.7452V431.876C61.2013 431.992 60.6653 432.116 60.1213 432.248ZM60.1213 432.248V434.262H59.0739C58.8468 434.336 58.6113 434.411 58.3841 434.485C56.9795 434.939 55.5992 435.415 54.2432 435.913H61.7452V431.876C61.2013 431.992 60.6653 432.116 60.1213 432.248ZM138.473 388.862H66.2108C65.6416 388.859 65.0752 388.943 64.5302 389.11C63.6832 389.36 62.8993 389.794 62.2323 390.381C61.5652 390.968 61.0307 391.694 60.6653 392.511C60.306 393.308 60.1204 394.176 60.1213 395.053V434.262H51.5961C51.1162 434.262 50.6411 434.358 50.1978 434.545C49.7545 434.731 49.3517 435.005 49.0124 435.35C48.6731 435.695 48.404 436.104 48.2204 436.555C48.0368 437.006 47.9423 437.489 47.9424 437.977C47.9422 438.112 47.9504 438.247 47.967 438.381C48.0658 439.29 48.4905 440.13 49.1599 440.74C49.8294 441.351 50.6967 441.69 51.5961 441.691H138.473C140.087 441.691 141.636 441.038 142.778 439.877C143.92 438.716 144.561 437.142 144.562 435.5V395.053C144.56 393.412 143.918 391.838 142.776 390.678C141.635 389.517 140.087 388.864 138.473 388.862ZM142.938 435.5C142.937 436.704 142.467 437.858 141.629 438.71C140.792 439.561 139.657 440.04 138.473 440.04H51.5961C51.0578 440.04 50.5416 439.823 50.161 439.436C49.7804 439.049 49.5665 438.524 49.5662 437.977C49.5662 437.886 49.5746 437.803 49.5825 437.712C49.6464 437.215 49.8858 436.759 50.2563 436.428C50.6267 436.097 51.1029 435.914 51.5961 435.913H61.7452V395.053C61.747 394.032 62.0868 393.041 62.7098 392.24C63.3327 391.439 64.2027 390.874 65.1797 390.637C65.5172 390.554 65.8634 390.512 66.2108 390.513H138.473C139.657 390.514 140.792 390.992 141.629 391.844C142.467 392.695 142.937 393.849 142.938 395.053V435.5ZM60.1213 432.248V434.262H59.0739C58.8468 434.336 58.6113 434.411 58.3841 434.485C56.9795 434.939 55.5992 435.415 54.2432 435.913H61.7452V431.876C61.2013 431.992 60.6653 432.116 60.1213 432.248ZM60.1213 432.248V434.262H59.0739C58.8468 434.336 58.6113 434.411 58.3841 434.485C56.9795 434.939 55.5992 435.415 54.2432 435.913H61.7452V431.876C61.2013 431.992 60.6653 432.116 60.1213 432.248ZM60.1213 432.248V434.262H59.0739C58.8468 434.336 58.6113 434.411 58.3841 434.485C56.9795 434.939 55.5992 435.415 54.2432 435.913H61.7452V431.876C61.2013 431.992 60.6653 432.116 60.1213 432.248ZM60.1213 434.155V434.262H59.0739C58.8468 434.336 58.6113 434.411 58.3841 434.485C56.9795 434.939 55.5992 435.415 54.2432 435.913H61.7452V434.386C61.2013 434.303 60.6573 434.229 60.1213 434.155Z" fill="#3F3D56"/>
<path d="M107.213 415.277C107.213 416.59 106.7 417.85 105.787 418.779C104.873 419.708 103.634 420.229 102.342 420.229C101.05 420.229 99.8107 419.708 98.8971 418.779C97.9835 417.85 97.4702 416.59 97.4702 415.277C97.4693 414.576 97.6162 413.884 97.9008 413.246C98.2854 412.376 98.9092 411.637 99.697 411.119C100.485 410.6 101.403 410.324 102.342 410.324C103.407 410.319 104.444 410.673 105.289 411.331C105.888 411.793 106.373 412.39 106.706 413.075C107.04 413.759 107.214 414.513 107.213 415.277V415.277Z" fill="#605EC5"/>
<path d="M562.057 49.3694C562.057 51.88 561.315 54.3342 559.925 56.4217C558.534 58.5092 556.557 60.1362 554.245 61.097C551.932 62.0577 549.387 62.3091 546.932 61.8193C544.477 61.3295 542.222 60.1205 540.452 58.3453C538.682 56.57 537.477 54.3082 536.989 51.8458C536.5 49.3835 536.751 46.8312 537.709 44.5117C538.667 42.1922 540.289 40.2097 542.37 38.8148C544.452 37.42 546.898 36.6755 549.402 36.6755C552.758 36.6766 555.976 38.0143 558.349 40.3947C560.723 42.775 562.056 46.0031 562.057 49.3694V49.3694Z" fill="white"/>
<path d="M555.251 51.5415C555.113 59.6599 543.073 59.6586 542.936 51.5412C543.074 43.4231 555.114 43.4244 555.251 51.5415Z" fill="#6C63FF"/>
<path d="M548.849 54.0608L548.843 53.83C550.429 54.0424 550.77 52.0709 549.171 52.808L549.536 50.1318L549.764 50.1632L549.453 52.4396C551.137 52.1881 550.515 54.2915 548.849 54.0608Z" fill="#2F2E41"/>
<path d="M552.13 50.3596H550.891V50.5904H552.13V50.3596Z" fill="#2F2E41"/>
<path d="M548.219 50.3596H546.979V50.5904H548.219V50.3596Z" fill="#2F2E41"/>
<path d="M551.09 60.1769C551.331 58.5417 549.423 58.8648 548.412 58.8487C548.249 58.8492 548.089 58.8861 547.942 58.9568C547.795 59.0275 547.666 59.1301 547.564 59.2573C547.461 59.3844 547.389 59.5328 547.351 59.6917C547.313 59.8506 547.311 60.016 547.345 60.1757C546.563 60.4181 545.839 60.8187 545.217 61.3528C547.836 62.2687 550.682 62.3004 553.321 61.4428C552.677 60.8634 551.916 60.4315 551.09 60.1769V60.1769Z" fill="#2F2E41"/>
<path d="M546.199 48.6199C547.34 47.9584 548.724 48.4659 549.902 48.7433C552.139 49.4329 555.275 48.5694 555.547 45.8973C555.83 43.4122 552.441 42.0272 551.357 44.5006L551.673 44.4592C548.159 39.2222 542.048 39.4208 542.088 46.6208C542.075 46.8432 542.42 46.8425 542.433 46.6207C542.304 42.3778 545.104 39.4776 549.061 42.2042C549.967 42.867 550.7 43.7448 551.375 44.634C551.787 45.0972 551.877 43.1021 553.849 43.6247C556.02 44.4683 555.312 47.5862 553.371 48.2706C550.974 49.4992 548.377 47.1172 546.024 48.3208C545.987 48.3448 545.959 48.3826 545.949 48.4263C545.938 48.4699 545.945 48.516 545.968 48.5548C545.99 48.5936 546.027 48.622 546.07 48.6342C546.113 48.6463 546.159 48.6412 546.199 48.6199V48.6199Z" fill="#2F2E41"/>
<path d="M549.402 62.4092C546.133 62.4065 542.986 61.1682 540.588 58.9412C538.189 56.7143 536.716 53.6624 536.462 50.3943C536.207 47.1262 537.191 43.882 539.215 41.3087C541.24 38.7354 544.157 37.0222 547.386 36.5107C550.614 35.9992 553.916 36.7271 556.633 38.5491C559.35 40.3711 561.282 43.1534 562.044 46.341C562.807 49.5287 562.343 52.8874 560.746 55.7474C559.149 58.6074 556.535 60.7584 553.427 61.7715C552.127 62.1955 550.769 62.4107 549.402 62.4092ZM549.402 37.0216C546.966 37.0212 544.586 37.7452 542.56 39.1021C540.535 40.4589 538.957 42.3876 538.025 44.6442C537.093 46.9009 536.849 49.3841 537.324 51.7798C537.799 54.1755 538.972 56.3761 540.694 58.1033C542.416 59.8305 544.61 61.0067 546.998 61.4832C549.387 61.9596 551.863 61.7149 554.113 60.78C556.362 59.8451 558.285 58.2619 559.638 56.2308C560.991 54.1997 561.713 51.8118 561.712 49.3692C561.709 46.0955 560.411 42.957 558.103 40.6422C555.795 38.3274 552.666 37.0253 549.402 37.0216V37.0216Z" fill="#CCCCCC"/>
<path d="M557.179 49.3769C557.177 51.0464 557.504 52.6998 558.142 54.2417C558.78 55.7837 559.716 57.1836 560.897 58.3608C560.996 58.4588 561.097 58.5568 561.199 58.6525C561.815 59.2301 562.488 59.7442 563.206 60.1873C563.344 60.2726 563.482 60.3545 563.624 60.4341C564.35 60.8448 565.116 61.182 565.909 61.4407C566.046 61.4857 566.185 61.5284 566.324 61.5676C568.846 62.2929 571.53 62.2172 574.006 61.3508C574.055 61.3335 574.103 61.3162 574.15 61.2989C576.324 60.5055 578.24 59.129 579.689 57.3194C581.137 55.5097 582.063 53.3362 582.365 51.0354C582.668 48.7346 582.335 46.3947 581.403 44.2704C580.472 42.1461 578.977 40.3189 577.082 38.9876C575.186 37.6563 572.964 36.8719 570.655 36.7199C568.346 36.5679 566.04 37.054 563.987 38.1253C561.935 39.1967 560.215 40.8123 559.014 42.7961C557.814 44.78 557.179 47.0562 557.179 49.3769V49.3769Z" fill="white"/>
<path d="M567.154 55.5941C567.16 56.5768 566.799 57.5261 566.142 58.255C565.492 58.9708 564.524 59.4454 563.547 59.2491C562.647 59.0682 561.917 58.2797 562.008 57.3257C562.023 57.1191 562.083 56.9183 562.183 56.7372C562.284 56.5562 562.422 56.3993 562.589 56.2775C562.756 56.1557 562.948 56.0719 563.151 56.032C563.353 55.9921 563.562 55.9969 563.763 56.0463C564.617 56.2687 564.958 57.504 564.246 58.0837C564.075 58.2229 563.829 57.9796 564.002 57.8391C564.473 57.4559 564.327 56.6174 563.759 56.4071C563.098 56.1623 562.397 56.6888 562.349 57.3671C562.293 58.1713 562.907 58.777 563.66 58.9196C564.475 59.0738 565.283 58.6555 565.835 58.0781C566.468 57.4076 566.817 56.5173 566.809 55.5941C566.811 55.5492 566.83 55.5068 566.862 55.4756C566.894 55.4444 566.937 55.427 566.982 55.427C567.027 55.427 567.07 55.4444 567.102 55.4756C567.134 55.5068 567.153 55.5492 567.154 55.5941L567.154 55.5941Z" fill="#2F2E41"/>
<path d="M570.523 57.7932C573.921 57.7932 576.676 55.0302 576.676 51.6218C576.676 48.2135 573.921 45.4504 570.523 45.4504C567.124 45.4504 564.37 48.2135 564.37 51.6218C564.37 55.0302 567.124 57.7932 570.523 57.7932Z" fill="#6C63FF"/>
<path d="M570.208 54.2551L570.201 54.0245C570.629 54.0125 571.006 53.9856 571.289 53.778C571.37 53.7157 571.436 53.6369 571.483 53.5468C571.53 53.4567 571.558 53.3574 571.563 53.2558C571.568 53.1937 571.559 53.1313 571.536 53.0734C571.513 53.0155 571.477 52.9637 571.431 52.922C571.243 52.7627 570.94 52.8143 570.719 52.9157L570.529 53.0032L570.894 50.3291L571.122 50.3604L570.811 52.6351C571.111 52.5467 571.389 52.5848 571.579 52.7459C571.652 52.8099 571.709 52.8899 571.747 52.9798C571.784 53.0696 571.799 53.1669 571.793 53.2639C571.786 53.4005 571.75 53.5339 571.686 53.6549C571.623 53.7759 571.534 53.8814 571.425 53.9642C571.061 54.2311 570.588 54.2444 570.208 54.2551Z" fill="#2F2E41"/>
<path d="M573.487 50.5564H572.249V50.787H573.487V50.5564Z" fill="#2F2E41"/>
<path d="M569.578 50.5564H568.339V50.787H569.578V50.5564Z" fill="#2F2E41"/>
<path d="M566.324 61.5677C568.846 62.293 571.529 62.2173 574.006 61.351C574.055 61.3337 574.103 61.3164 574.15 61.2991C573.566 60.8475 572.906 60.5053 572.201 60.2889C572.251 60.1116 572.25 59.9238 572.199 59.747C572.129 59.5228 571.989 59.3271 571.8 59.1892C571.61 59.0512 571.381 58.9783 571.147 58.9813H569.648C569.414 58.9781 569.186 59.0508 568.996 59.1886C568.807 59.3264 568.668 59.5219 568.598 59.7458C568.547 59.9231 568.546 60.1112 568.596 60.2889C567.975 60.4796 567.388 60.768 566.858 61.1434C566.751 61.2183 566.647 61.2968 566.547 61.3786C566.471 61.4397 566.397 61.5032 566.324 61.5677Z" fill="#2F2E41"/>
<path d="M563.041 50.967C563.041 51.8618 563.418 52.6251 563.947 52.9169C564.092 52.9982 564.255 53.0415 564.421 53.0426C564.458 53.0426 564.494 53.0402 564.531 53.0356C565.239 52.9515 565.8 52.0566 565.8 50.967C565.8 50.0941 565.44 49.3457 564.932 49.0401C564.779 48.9444 564.602 48.8929 564.421 48.8914C564.266 48.8918 564.115 48.9293 563.978 49.0009C563.822 49.0836 563.684 49.1965 563.571 49.333C563.249 49.7124 563.041 50.3039 563.041 50.967Z" fill="#3F3D56"/>
<path d="M575.393 51.456C575.393 52.3508 575.77 53.1141 576.299 53.4059C576.444 53.4873 576.607 53.5305 576.773 53.5316C576.81 53.5316 576.846 53.5293 576.883 53.5246C577.591 53.4405 578.152 52.5457 578.152 51.456C578.152 50.5831 577.792 49.8347 577.284 49.5291C577.131 49.4334 576.954 49.3819 576.773 49.3804C576.618 49.3808 576.467 49.4184 576.33 49.4899C576.174 49.5726 576.036 49.6855 575.923 49.822C575.601 50.2014 575.393 50.7929 575.393 51.456Z" fill="#3F3D56"/>
<path d="M564.033 52.7179C564.06 52.7178 564.087 52.7113 564.111 52.6987C564.136 52.6862 564.157 52.668 564.173 52.6457C564.189 52.6234 564.199 52.5976 564.203 52.5705C564.207 52.5433 564.205 52.5156 564.196 52.4896C563.866 51.5065 563.767 50.4605 563.906 49.4327C564.045 48.405 564.419 47.4233 564.997 46.5638C565.576 45.7044 566.345 44.9903 567.243 44.4772C568.142 43.9642 569.147 43.6658 570.179 43.6054C571.211 43.545 572.243 43.7241 573.195 44.1289C574.147 44.5337 574.994 45.1532 575.668 45.9394C576.343 46.7255 576.827 47.657 577.085 48.6615C577.342 49.6661 577.365 50.7166 577.151 51.7314C577.147 51.7536 577.146 51.7766 577.15 51.7989C577.155 51.8212 577.163 51.8425 577.175 51.8616C577.188 51.8806 577.204 51.897 577.223 51.9098C577.241 51.9227 577.262 51.9317 577.284 51.9364C577.307 51.941 577.329 51.9413 577.352 51.9371C577.374 51.933 577.395 51.9244 577.414 51.912C577.433 51.8996 577.449 51.8836 577.462 51.8649C577.475 51.8461 577.484 51.825 577.489 51.8028C577.713 50.7358 577.689 49.6313 577.419 48.5751C577.149 47.5189 576.639 46.5395 575.93 45.7129C575.221 44.8863 574.331 44.2349 573.33 43.8093C572.329 43.3837 571.244 43.1953 570.159 43.2589C569.073 43.3224 568.017 43.6361 567.072 44.1757C566.127 44.7152 565.319 45.466 564.711 46.3697C564.103 47.2734 563.71 48.3056 563.564 49.3862C563.418 50.4668 563.522 51.5666 563.869 52.6001C563.881 52.6344 563.903 52.6642 563.932 52.6854C563.961 52.7065 563.996 52.7179 564.033 52.7179V52.7179Z" fill="#3F3D56"/>
<path d="M573.613 47.6231C573.856 47.9567 573.736 48.4062 573.48 48.6938C573.146 49.068 572.613 49.0916 572.15 49.0222C571.631 48.9442 571.081 48.7003 570.555 48.8647C570.108 49.0048 569.788 49.4122 569.323 49.5145C568.91 49.6053 568.417 49.4851 568.272 49.044C568.203 48.8321 568.536 48.7412 568.605 48.9521C568.698 49.2374 569.102 49.2317 569.334 49.1527C569.705 49.026 569.991 48.7179 570.355 48.5707C570.785 48.3972 571.252 48.4755 571.689 48.5744C572.102 48.6675 572.577 48.8057 572.988 48.6316C573.292 48.5028 573.534 48.0972 573.315 47.7977C573.184 47.6179 573.483 47.4451 573.613 47.6231V47.6231Z" fill="#2F2E41"/>
<path d="M569.825 62.4069C568.609 62.4079 567.398 62.2372 566.229 61.8998C566.091 61.8611 565.947 61.817 565.802 61.7694C564.987 61.5034 564.201 61.157 563.455 60.7354C563.315 60.6566 563.174 60.5735 563.025 60.4816C562.287 60.0263 561.597 59.4982 560.964 58.9051C560.859 58.8074 560.756 58.707 560.654 58.6068C558.663 56.6155 557.37 54.0298 556.969 51.2383C556.568 48.4467 557.081 45.6 558.43 43.1258C559.78 40.6516 561.894 38.6836 564.454 37.5173C567.015 36.351 569.883 36.0494 572.629 36.6579C575.375 37.2665 577.849 38.7522 579.681 40.8919C581.513 43.0316 582.604 45.7097 582.788 48.524C582.973 51.3383 582.242 54.1367 580.706 56.4989C579.17 58.8611 576.911 60.6595 574.268 61.6239C574.221 61.6413 574.172 61.6588 574.122 61.6764C572.741 62.1615 571.288 62.4085 569.825 62.4069V62.4069ZM569.825 37.0384C567.39 37.0385 565.011 37.7633 562.987 39.1208C560.963 40.4783 559.386 42.4077 558.456 44.6645C557.526 46.9213 557.285 49.4042 557.763 51.7987C558.241 54.1932 559.416 56.3916 561.14 58.1157C561.236 58.2102 561.334 58.3059 561.434 58.3995C562.034 58.9612 562.688 59.4613 563.387 59.8925C563.528 59.9796 563.66 60.0579 563.793 60.1322C564.499 60.5316 565.244 60.8597 566.016 61.1116C566.152 61.1564 566.287 61.1977 566.418 61.2344C568.871 61.9405 571.482 61.8671 573.892 61.0242L574.032 60.9739C576.75 59.9816 579.032 58.0606 580.478 55.5483C581.924 53.036 582.442 50.093 581.94 47.2361C581.438 44.3792 579.948 41.791 577.733 39.9261C575.517 38.0612 572.717 37.0388 569.825 37.0384V37.0384Z" fill="#CCCCCC"/>
<path d="M604.744 49.3792C604.744 52.057 603.9 54.6662 602.331 56.8332C600.763 59.0003 598.551 60.6142 596.013 61.4439C595.937 61.4681 595.861 61.4924 595.784 61.5154C595.455 61.6169 595.122 61.7034 594.783 61.7772C594.169 61.9108 593.546 61.9975 592.919 62.0367C592.647 62.0551 592.373 62.0643 592.097 62.0643C590.673 62.0657 589.259 61.8256 587.915 61.354C587.876 61.3401 587.837 61.3263 587.799 61.3125C585.622 60.5237 583.702 59.1505 582.249 57.3427C580.796 55.5349 579.865 53.3617 579.559 51.0601C579.252 48.7584 579.581 46.4165 580.51 44.2895C581.439 42.1625 582.933 40.3322 584.828 38.9978C586.722 37.6634 588.946 36.8763 591.256 36.7221C593.566 36.5679 595.874 37.0526 597.928 38.1235C599.983 39.1943 601.705 40.8101 602.907 42.7948C604.108 44.7796 604.744 47.0571 604.744 49.3792V49.3792Z" fill="white"/>
<path d="M591.794 57.7835C595.193 57.7835 597.948 55.0203 597.948 51.6117C597.948 48.2031 595.193 45.4399 591.794 45.4399C588.396 45.4399 585.641 48.2031 585.641 51.6117C585.641 55.0203 588.396 57.7835 591.794 57.7835Z" fill="#6C63FF"/>
<path d="M592.154 54.9372L592.16 54.7066C591.732 54.6947 591.355 54.6677 591.072 54.4601C590.992 54.3979 590.926 54.319 590.878 54.2289C590.831 54.1388 590.804 54.0395 590.798 53.9379C590.793 53.8758 590.802 53.8133 590.825 53.7554C590.848 53.6976 590.884 53.6458 590.931 53.6041C591.119 53.4447 591.421 53.4963 591.642 53.5978L591.832 53.6853L591.467 51.011L591.24 51.0423L591.55 53.3171C591.25 53.2287 590.972 53.2668 590.782 53.428C590.709 53.4919 590.652 53.572 590.615 53.6618C590.578 53.7517 590.562 53.8489 590.568 53.946C590.575 54.0826 590.611 54.216 590.675 54.337C590.739 54.458 590.828 54.5636 590.936 54.6463C591.3 54.9133 591.774 54.9265 592.154 54.9372Z" fill="#2F2E41"/>
<path d="M590.112 51.2383H588.874V51.4689H590.112V51.2383Z" fill="#2F2E41"/>
<path d="M594.022 51.2383H592.783V51.4689H594.022V51.2383Z" fill="#2F2E41"/>
<path d="M593.542 60.24C593.559 60.1642 593.567 60.0869 593.568 60.0094C593.567 59.7189 593.452 59.4406 593.247 59.2352C593.042 59.0298 592.765 58.9143 592.475 58.9138H590.866C590.576 58.9141 590.298 59.0296 590.094 59.235C589.889 59.4404 589.774 59.7189 589.773 60.0094C589.773 60.0873 589.782 60.165 589.799 60.2411C589.191 60.4332 588.617 60.7183 588.096 61.0864C587.995 61.1568 587.895 61.2329 587.799 61.3125C587.837 61.3263 587.876 61.3401 587.915 61.354C589.259 61.8256 590.673 62.0658 592.097 62.0643C592.373 62.0643 592.647 62.0551 592.919 62.0367C593.546 61.9975 594.169 61.9108 594.783 61.7772C595.122 61.7034 595.455 61.6169 595.784 61.5154C595.134 60.9382 594.37 60.5038 593.542 60.24V60.24Z" fill="#2F2E41"/>
<path d="M593.336 61.8901C593.186 61.9012 593.043 61.9517 592.919 62.0366C593.546 61.9974 594.169 61.9107 594.783 61.7771L593.336 61.8901Z" fill="#2F2E41"/>
<path d="M597.374 50.1458L586.685 46.2235C586.628 46.2026 586.576 46.1708 586.531 46.1298C586.487 46.0888 586.451 46.0395 586.426 45.9845C586.4 45.9296 586.386 45.8701 586.383 45.8096C586.381 45.7491 586.39 45.6887 586.411 45.6318L586.447 45.4603C587.282 43.1714 590.049 41.7309 592.331 42.5682L595.62 43.7752C597.903 44.6126 598.894 47.3229 598.06 49.6118L597.964 49.871C597.944 49.9279 597.912 49.9802 597.871 50.0248C597.83 50.0694 597.781 50.1054 597.726 50.1309C597.671 50.1565 597.612 50.1709 597.552 50.1734C597.491 50.176 597.431 50.1666 597.374 50.1458V50.1458Z" fill="#2F2E41"/>
<path d="M597.951 50.3632C583.052 50.9146 581.75 49.0369 586.289 46.0843L587.253 44.3069L598.29 48.3431L597.951 50.3632Z" fill="#2F2E41"/>
<path d="M595.029 43.4939C595.111 43.2194 594.759 42.8706 594.242 42.7147C593.725 42.5589 593.239 42.6551 593.157 42.9295C593.075 43.204 593.427 43.5528 593.944 43.7087C594.461 43.8645 594.947 43.7684 595.029 43.4939Z" fill="#2F2E41"/>
<path d="M592.097 62.4102C590.634 62.4118 589.182 62.1651 587.801 61.6804L587.681 61.6375C584.79 60.5893 582.362 58.5463 580.831 55.8719C579.299 53.1974 578.763 50.0649 579.318 47.0314C579.873 43.9979 581.482 41.26 583.86 39.3047C586.238 37.3494 589.23 36.3034 592.305 36.3527C595.379 36.4021 598.337 37.5435 600.651 39.5741C602.965 41.6047 604.487 44.3928 604.944 47.4425C605.402 50.4923 604.767 53.606 603.151 56.2299C601.535 58.8539 599.044 60.8179 596.12 61.7729C596.038 61.7989 595.961 61.8234 595.883 61.8469C595.556 61.9476 595.21 62.0382 594.856 62.1152C594.225 62.2524 593.585 62.3415 592.94 62.3818C592.664 62.4006 592.379 62.4102 592.097 62.4102ZM592.097 37.04C589.202 37.0404 586.4 38.0646 584.184 39.9325C581.967 41.8004 580.479 44.3923 579.979 47.2524C579.48 50.1125 580.002 53.0575 581.454 55.5697C582.906 58.0818 585.194 60 587.917 60.987L588.03 61.0277C589.337 61.4864 590.712 61.7199 592.097 61.7183C592.364 61.7183 592.632 61.7092 592.896 61.6914C593.506 61.6532 594.112 61.5688 594.71 61.439C595.045 61.3661 595.372 61.2806 595.683 61.1847C595.76 61.1616 595.833 61.1383 595.906 61.115C598.691 60.2053 601.061 58.3291 602.59 55.8237C604.118 53.3183 604.706 50.348 604.247 47.4468C603.788 44.5456 602.313 41.9038 600.085 39.9962C597.858 38.0886 595.026 37.0404 592.097 37.04V37.04Z" fill="#CCCCCC"/>
</g>
<defs>
<clipPath id="clip0">
<rect width="779" height="539" fill="white"/>
</clipPath>
</defs>
</svg>
